<svg><defs/><symbol id="arrow-down-midtone"><path d="M8 10.249l5.694-5.844a1.37 1.37 0 0 1 1.885-.058c.537.485.564 1.296.06 1.813L8 14 .36 6.16a1.249 1.249 0 0 1 .061-1.813 1.37 1.37 0 0 1 1.885.058L8 10.25z" fill="#8DA3C0" fill-rule="nonzero"/></symbol><symbol id="arrow-up-midtone"><path d="M8 5.751l-5.694 5.844a1.37 1.37 0 0 1-1.885.058 1.249 1.249 0 0 1-.06-1.813L8 2l7.64 7.84a1.249 1.249 0 0 1-.061 1.813 1.37 1.37 0 0 1-1.885-.058L8 5.75z" fill="#8DA3C0" fill-rule="nonzero"/></symbol><symbol id="close-midtone"><path d="M8 6.144l4.76-4.76a1.313 1.313 0 0 1 1.856 1.857L9.856 8l4.76 4.76a1.313 1.313 0 0 1-1.857 1.856L8 9.856l-4.76 4.76a1.313 1.313 0 0 1-1.856-1.857L6.144 8l-4.76-4.76a1.312 1.312 0 1 1 1.857-1.856L8 6.144z" fill="#8DA3C0" fill-rule="nonzero"/></symbol><symbol id="add" viewBox="0 0 16 16"><path d="M9.5 6.5h5a1.5 1.5 0 0 1 0 3h-5v5a1.5 1.5 0 0 1-3 0v-5h-5a1.5 1.5 0 0 1 0-3h5v-5a1.5 1.5 0 0 1 3 0v5z" fill="currentColor"/></symbol><symbol id="arrow-down" viewBox="0 0 16 16"><path d="M8 10.249l5.694-5.844a1.37 1.37 0 0 1 1.885-.058c.537.485.564 1.296.06 1.813L8 14 .36 6.16a1.249 1.249 0 0 1 .061-1.813 1.37 1.37 0 0 1 1.885.058L8 10.25z" fill="currentColor"/></symbol><symbol id="arrow-left" viewBox="0 0 16 16"><path d="M5.751 8l5.844-5.694a1.37 1.37 0 0 0 .058-1.885A1.249 1.249 0 0 0 9.84.361L2 8l7.84 7.64a1.249 1.249 0 0 0 1.813-.061 1.37 1.37 0 0 0-.058-1.885L5.75 8z" fill="currentColor"/></symbol><symbol id="arrow-right" viewBox="0 0 16 16"><path d="M10.249 8L4.405 2.306A1.37 1.37 0 0 1 4.347.421 1.249 1.249 0 0 1 6.16.361L14 8l-7.84 7.64a1.249 1.249 0 0 1-1.813-.061 1.37 1.37 0 0 1 .058-1.885L10.25 8z" fill="currentColor"/></symbol><symbol id="arrow-up" viewBox="0 0 16 16"><path d="M8 5.751l-5.694 5.844a1.37 1.37 0 0 1-1.885.058 1.249 1.249 0 0 1-.06-1.813L8 2l7.64 7.84a1.249 1.249 0 0 1-.061 1.813 1.37 1.37 0 0 1-1.885-.058L8 5.75z" fill="currentColor"/></symbol><symbol id="check" viewBox="0 0 16 16"><path d="M.44 9.552A1.5 1.5 0 0 1 2.56 7.43l2.937 2.937 7.927-7.928a1.5 1.5 0 0 1 2.121 2.122L5.497 14.573.439 9.552z" fill="currentColor"/></symbol><symbol id="close" viewBox="0 0 16 16"><path d="M8 6.144l4.76-4.76a1.313 1.313 0 0 1 1.856 1.857L9.856 8l4.76 4.76a1.313 1.313 0 0 1-1.857 1.856L8 9.856l-4.76 4.76a1.313 1.313 0 0 1-1.856-1.857L6.144 8l-4.76-4.76a1.312 1.312 0 1 1 1.857-1.856L8 6.144z" fill="currentColor" fill-rule="evenodd"/></symbol><symbol id="eip-book" viewBox="0 0 80 80"><path d="M40 0c22.077 0 40 17.923 40 40S62.077 80 40 80C17.924 80 0 62.077 0 40S17.924 0 40 0zm19.74 27.204a1.462 1.462 0 0 1 1.455 1.469l-.001 24.386c0 .225-.016.451-.037.675-.053.558-.318.807-.873.808-1.822.004-3.644.002-5.466.002H41.796c-.576 0-.926-.263-1-.744-.085-.551.203-.994.758-1.156 2.92-.855 5.9-1.343 8.942-1.27 1.828.044 3.653.24 5.478.385.75.06 1.495.166 2.282.256V28.676c0-.819.655-1.474 1.465-1.472h.018zm-37.987 24.81c.812-.094 1.583-.186 2.354-.273 2.681-.303 5.364-.499 8.065-.277 2.126.174 4.202.588 6.25 1.17.644.183.96.755.738 1.336-.14.37-.417.572-.81.572-6.21.002-12.419.002-18.628 0-.554 0-.82-.25-.87-.81a8.688 8.688 0 0 1-.037-.782c-.002-8.069.003-16.137-.01-24.205-.001-.729.281-1.172 1.048-1.457.578-.215 1.33.035 1.686.586.137.213.205.508.205.766.011 7.64.009 15.28.009 22.922v.452zm33.351-3.379c-4.865-1.11-9.635-1.02-14.314 1.022v-.41c-.001-7.224-.001-14.449-.011-21.673 0-.294.084-.471.33-.635 2.036-1.344 4.277-2.134 6.663-2.556 1.828-.324 3.647-.3 5.446.157.566.143 1.1.411 1.645.632.189.077.265.221.265.447-.006 7.568-.004 15.137-.004 22.706 0 .094-.012.187-.02.31zm-30.22.006v-.448c0-7.486.004-14.971-.006-22.457 0-.323.11-.494.378-.636.98-.52 2.04-.746 3.123-.847 3.618-.338 6.94.597 10.066 2.386.569.326.801.69.798 1.388-.034 7.058-.023 14.116-.025 21.173v.456c-4.67-2.037-9.44-2.134-14.334-1.015z" fill-rule="evenodd"/></symbol><symbol id="eip-choice" viewBox="0 0 80 80"><path d="M40 0c22.077 0 40 17.923 40 40 0 22.076-17.923 40-40 40S0 62.076 0 40C0 17.923 17.923 0 40 0zm9.114 55.93l-5.083-23.85.005-.076 1.38-6.455 11.746 5.015.798-1.825-13.212-6.819c-1.298-.584-2.532-.886-4.906-.932l-.013-.003-.036.002-.037-.002-.013.003c-2.374.046-3.66.348-4.957.932l-13.211 6.82.797 1.824 11.746-5.015 1.385 6.455-5.032 23.926h5.714l1.152 11.973h1.697V55.93h1.517v11.973h1.697L43.4 55.93h5.714zm-9.023-36.744c1.939 0 3.508-1.636 3.508-3.654s-1.57-3.654-3.508-3.654c-1.936 0-3.505 1.636-3.505 3.654s1.57 3.654 3.505 3.654z" fill="currentColor" fill-rule="evenodd"/></symbol><symbol id="eip-community" viewBox="0 0 80 80"><path d="M40 0c22.076 0 40 17.923 40 40 0 22.076-17.924 40-40 40S0 62.075 0 40C0 17.923 17.924 0 40 0zm-2.697 63.656l-2.15-11.635.022-1.41 1.629 5.223.812-.297-1.35-6.325c-.309-1.254-.4-1.602-1.609-1.763l-.007.005c-.006 0-.01-.005-.015-.006-.242-.026-1.316-.057-1.316-.057h-.034s-1.08.03-1.321.057l-.015.006-.008-.005c-1.209.161-1.3.51-1.608 1.763l-1.351 6.325.813.297 1.628-5.222.023 1.41-2.151 11.634h2.455l.495 4.13h.729v-4.13h.651v4.13h.729l.495-4.13h2.454zm5.188-7.538h1.283l.809-5.597.156 2.638-.337 3.637.837 10.987h1.339v-9.234h.388l.002 9.236h1.448l.657-10.985-.383-3.64.3-2.708 1.023 5.69 1.04-.034-.765-6.923c-.495-1.99-1.436-2.464-3.533-2.491-2.236-.03-2.876.614-3.362 2.559l-.902 6.865zM28.524 46.41l-2.151-11.634.023-1.41 1.628 5.223.813-.298-1.35-6.324c-.309-1.254-.4-1.601-1.61-1.763l-.007.005c-.005 0-.01-.005-.014-.005-.242-.028-1.317-.058-1.317-.058h-.033s-1.08.03-1.321.058c-.006 0-.011.004-.016.005l-.007-.005c-1.209.162-1.3.51-1.608 1.763l-1.351 6.324.812.298 1.63-5.223.021 1.41-2.15 11.634h2.454l.495 4.13h.729v-4.13h.652v4.13h.729l.494-4.13h2.455zm30.96-.586l-2.15-11.634.022-1.41 1.63 5.223.811-.298-1.35-6.324c-.308-1.255-.4-1.602-1.609-1.764l-.007.005c-.006 0-.01-.005-.016-.005-.241-.027-1.315-.058-1.315-.058h-.034s-1.08.03-1.321.058c-.005 0-.01.004-.015.005l-.008-.005c-1.209.162-1.3.51-1.608 1.764l-1.351 6.324.813.298 1.628-5.223.023 1.41-2.15 11.634h2.454l.494 4.129h.73v-4.13h.65v4.13h.73l.494-4.13h2.455zm-26.149 1.034c.833 0 1.507-.71 1.507-1.587s-.674-1.588-1.507-1.588c-.831 0-1.505.711-1.505 1.588 0 .876.674 1.587 1.505 1.587zm13.381-.748c.798 0 1.593-.639 1.593-1.686 0-1.046-.795-1.685-1.593-1.685-.763 0-1.56.64-1.56 1.685 0 1.017.764 1.686 1.56 1.686zM29.507 25.605h1.284l.808-5.597.157 2.638-.338 3.637.838 10.987h1.338v-9.234h.387l.003 9.236h1.448l.657-10.985-.382-3.641.299-2.707 1.024 5.69 1.04-.034-.765-6.923c-.495-1.99-1.437-2.465-3.534-2.492-2.236-.03-2.876.615-3.363 2.56l-.9 6.865zm12.132-.01h1.283l.808-5.598.157 2.638-.337 3.638.837 10.986h1.338v-9.234h.388l.002 9.236h1.448l.657-10.984-.383-3.642.3-2.706 1.024 5.69 1.04-.034-.766-6.923c-.495-1.99-1.436-2.465-3.533-2.492-2.235-.03-2.876.615-3.362 2.56l-.901 6.864zM24.556 29.61c.832 0 1.507-.71 1.507-1.588 0-.876-.675-1.587-1.507-1.587-.831 0-1.505.711-1.505 1.587 0 .877.674 1.588 1.505 1.588zm30.96-.586c.833 0 1.507-.71 1.507-1.588 0-.877-.674-1.587-1.507-1.587-.831 0-1.505.71-1.505 1.587s.674 1.588 1.505 1.588zm-21.783-13.43c.797 0 1.592-.639 1.592-1.686 0-1.045-.795-1.685-1.592-1.685-.764 0-1.56.64-1.56 1.685 0 1.018.763 1.686 1.56 1.686zm12.13-.01c.798 0 1.594-.638 1.594-1.686 0-1.046-.796-1.685-1.594-1.685-.763 0-1.56.64-1.56 1.685 0 1.018.764 1.686 1.56 1.686z" fill-rule="evenodd"/></symbol><symbol id="eip-contraceptives" viewBox="0 0 80 80"><path d="M40 0c22.077 0 40 17.923 40 40S62.077 80 40 80C17.924 80 0 62.077 0 40S17.924 0 40 0zm4.08 16.228h-8.303c-.27 0-.513.098-.706.254H24.809v.012c-.113-.005-.226-.01-.343-.005-1.44.074-2.57.837-2.526 1.706.044.87 1.247 1.515 2.686 1.44 1.278-.063 2.307-.672 2.494-1.416h7.93c.196.169.448.272.727.272h3.242l-.015 4.95c-.168.019-.292.046-.292.085 0 .524-.144 1.018-1.162 2.24v22.281s1.018.679 1.018 1.697h.649v.932c-.62.363-1.043 1.131-1.043 2.047v1.804c0 .934.438 1.716 1.078 2.07-.3 1.653-1.54 5.474-3.392 9.756h.86c1.448-3.389 2.575-6.624 3.088-8.643.507 2.002 1.62 5.204 3.09 8.643h.862c-1.792-4.15-3.011-7.873-3.359-9.6.846-.212 1.463-1.113 1.463-2.226v-1.804c0-.93-.432-1.705-1.066-2.061v-.918h.614c0-1.018 1.017-1.697 1.017-1.697v-22.28c-1.017-1.223-1.162-1.717-1.162-2.241 0-.037-.114-.064-.27-.083l-.016-4.952h3.1c.277 0 .529-.103.725-.272h8.075c.187.744 1.217 1.353 2.493 1.417 1.44.074 2.642-.571 2.686-1.441.045-.869-1.087-1.632-2.526-1.706-.117-.006-.23 0-.343.005v-.012H44.786a1.121 1.121 0 0 0-.705-.254zm-4.64 36.495c0-.578.305-1.007.58-1.007.273 0 .58.429.58 1.007v1.804c0 .576-.307 1.008-.58 1.008-.275 0-.58-.432-.58-1.008v-1.804z" fill-rule="evenodd"/></symbol><symbol id="eip-coordination" viewBox="0 0 80 80"><path d="M40 0c22.077 0 40 17.923 40 40S62.077 80 40 80C17.924 80 0 62.077 0 40S17.924 0 40 0zm-5.037 59.023A5.169 5.169 0 0 1 40 55.003a5.167 5.167 0 0 1 5.165 5.165A5.167 5.167 0 0 1 40 65.332a5.167 5.167 0 0 1-5.052-6.24l.006-.027.01-.042zM22.326 46.99c.318.843.697 1.664 1.138 2.452 2.118 3.788 5.607 6.715 9.645 8.321a7.583 7.583 0 0 0-.482 2.308c-5.714-2.182-10.463-6.908-12.572-12.7a6.918 6.918 0 0 0 2.27-.381zm35.388-.092a7.85 7.85 0 0 0 2.224.461 20.316 20.316 0 0 1-1.495 3.296c-2.424 4.271-6.425 7.56-11.04 9.317a6.77 6.77 0 0 0-.378-2.188c4.815-1.98 8.808-5.99 10.689-10.886zm-16.586-7.872v-11.88a7.445 7.445 0 0 1-2.256-.057v11.937H27.186a7.159 7.159 0 0 1-.09 2.256h11.776V52.84a6.924 6.924 0 0 1 1.176-.093c.363.004.724.036 1.08.096V41.28h11.738a7.036 7.036 0 0 1 .017-2.256H41.128zm-21.296-4.19A5.167 5.167 0 0 1 24.997 40a5.167 5.167 0 0 1-5.165 5.164A5.167 5.167 0 0 1 14.668 40a5.167 5.167 0 0 1 5.164-5.165zm40.336 0A5.167 5.167 0 0 1 65.333 40a5.168 5.168 0 0 1-5.165 5.164A5.167 5.167 0 0 1 55.003 40a5.167 5.167 0 0 1 5.165-5.165zM47.366 20.428c5.08 1.946 9.448 5.8 11.787 10.727.223.47.428.95.613 1.436a6.938 6.938 0 0 0-2.344.555c-1.76-4.31-5.034-8.035-9.427-10.088a18.38 18.38 0 0 0-1.167-.497 7.729 7.729 0 0 0 .538-2.133zm-14.74-.063a6.61 6.61 0 0 0 .508 2.28c-4.422 1.77-8.2 5.164-10.248 9.478-.152.32-.295.644-.427.973a7.237 7.237 0 0 0-2.129-.497c1.427-3.7 3.849-7.029 7.099-9.43a21.066 21.066 0 0 1 5.197-2.804zm12.313.98A5.17 5.17 0 0 1 40 24.997a5.167 5.167 0 0 1-5.164-5.165A5.167 5.167 0 0 1 40 14.667a5.167 5.167 0 0 1 4.94 6.676v.002z" fill-rule="evenodd"/></symbol><symbol id="eip-couple" viewBox="0 0 80 80"><path d="M40 0c22.076 0 40 17.923 40 40 0 22.076-17.924 40-40 40S0 62.075 0 40C0 17.923 17.924 0 40 0zm-1.7 56.144L33.995 36.25l3.07-1.177c.753-.276.811-.665.594-1.376l-1.388-5.026c-.627-2.465-1.24-3.253-3.784-3.505-.568-.056-2.058-.111-2.985-.111-.928 0-2.436.056-2.982.11-2.542.253-3.157 1.04-3.784 3.506l-1.387 5.026c-.216.711-.159 1.1.595 1.376l3.07 1.177-4.304 19.894h5.344l1.078 7.894h1.588v-7.894h1.569v7.894h1.587l1.077-7.894H38.3zm15.222 7.894l1.438-21.085-.84-6.989.658-5.195 2.237 10.92 2.274-.064-1.674-13.29c-1.082-3.82-3.14-4.728-7.727-4.782-4.888-.056-6.288 1.181-7.353 4.914l-1.97 13.176 2.807.001L45.14 30.9l.343 5.064-.74 6.982 1.834 21.087h2.925V46.31h.848l.004 17.73h3.168zM28.33 35.933c-.396-2.316 1.112-3.96 1.473-4.387.235-.274.398-.23.672-1.477.298-1.353 1.714-2.179 3.389-1.626 1.446.478 1.849 1.804 1.483 2.84-.366 1.03-.697 1.082-.945 1.597-.266.558-.24.776-.24.776l-5.832 2.277zm-3.828-2.45l.831-2.876.06 3.3-.891-.424zm9.535-3.08c-.02.07-.108.31-.14.377a1.53 1.53 0 0 1-1.992.752 1.453 1.453 0 0 1-.737-1.95c.04-.082.17-.276.218-.349 1.034-.198 2.2.02 2.65 1.17zm-4.746-6.611c-1.553 0-3.045-1.292-3.045-3.26 0-2.022 1.555-3.258 3.045-3.258 1.556 0 3.11 1.236 3.11 3.259 0 2.023-1.554 3.259-3.11 3.259zm20.547-1.313c-1.553 0-3.046-1.292-3.046-3.26 0-2.022 1.555-3.258 3.046-3.258 1.556 0 3.109 1.236 3.109 3.259 0 2.023-1.553 3.259-3.11 3.259z" fill-rule="evenodd"/></symbol><symbol id="eip-equality" viewBox="0 0 80 80"><path d="M40 0c22.077 0 40 17.923 40 40 0 22.076-17.923 40-40 40C17.924 80 0 62.076 0 40 0 17.923 17.924 0 40 0zm-9.277 53.95L27.04 34.007l.039-2.417 2.79 8.953 1.391-.51-2.314-10.84c-.527-2.151-.684-2.746-2.755-3.023l-.012.009c-.01-.002-.017-.01-.027-.01-.414-.046-2.254-.099-2.254-.099l-.023.001a.68.68 0 0 1-.033 0s-1.85.052-2.264.098c-.01 0-.017.008-.027.01l-.011-.01c-2.072.278-2.228.873-2.755 3.023l-2.315 10.84 1.392.511 2.79-8.953.039 2.417-3.684 19.943h4.204l.848 7.079h1.248v-7.08h1.116v7.08h1.248l.848-7.08h4.204zm28.25 7.079l1.136-18.907-.662-6.266.519-4.66 1.767 9.794 1.797-.058-1.322-11.916c-.855-3.426-2.482-4.242-6.104-4.289-3.861-.05-4.968 1.059-5.808 4.406L48.74 40.948l2.217.001 1.395-9.634.271 4.541-.583 6.26 1.448 18.909h2.311V45.132h.67l.004 15.897h2.5zM35.295 41.533h8.067v-2.69h-8.067v2.69zm0-4.706h8.067v-2.69h-8.067v2.69zm-11.43-11.429a2.689 2.689 0 1 1 .001-5.377 2.689 2.689 0 0 1 0 5.377zm32.243-1.588c-1.357 0-2.661-.956-2.661-2.782 0-1.877 1.386-2.858 2.689-2.858 1.36 0 2.689.98 2.689 2.858 0 1.879-1.357 2.782-2.717 2.782z" fill-rule="evenodd"/></symbol><symbol id="eip-youth" viewBox="0 0 80 80"><path d="M40 0c22.077 0 40 17.924 40 40 0 22.077-17.923 40-40 40S0 62.077 0 40C0 17.924 17.923 0 40 0zm26.994 41.95l-3.956-12.819c-.993-3.213-1.023-3.24-7.01-3.213-3.036.014-3.154.292-4.088 3.213l-3.041 8.929-2.749-8.929c-.993-3.213-1.022-3.24-7.01-3.213-3.036.014-3.154.292-4.088 3.213l-3.522 10.34-2.501-9.903c-.85-3.375-1.967-4.492-5.867-4.44-3.657.046-5.301.868-6.164 4.323l-2.7 12.013 2.102.408 2.862-10.223.524 4.697-.668 6.318 1.147 19.061h2.526l.003-16.026h.676V61.72h2.335l1.462-19.065-.59-6.31.274-4.577 2.874 10.18 2.648-.001 4.624-10.83.934 3.332-2.206 11.592h.921l1.694 15.696h1.343v-15.6h1.46v15.6h1.285l1.887-15.671h1.088L43.17 34.45l.76-3.331 4.517 10.831h.933l4.604-10.831.934 3.33-2.206 11.593h.92l1.694 15.696h1.344v-15.6h1.46v15.6h1.285l1.886-15.671h1.088L60.06 34.45l.759-3.331 4.74 10.831h1.436zM40.646 24.938c-1.389 0-2.778-1.093-2.778-2.883 0-1.788 1.39-2.882 2.778-2.882 1.334 0 2.723 1.094 2.723 2.882 0 1.74-1.334 2.883-2.723 2.883zm16.888 0c-1.39 0-2.779-1.093-2.779-2.883 0-1.788 1.39-2.882 2.779-2.882 1.333 0 2.723 1.094 2.723 2.882 0 1.74-1.335 2.883-2.723 2.883zm-34.304-.826c-1.391 0-2.78-1.109-2.78-2.924s1.389-2.925 2.78-2.925c1.332 0 2.721 1.11 2.721 2.925 0 1.766-1.333 2.924-2.721 2.924z" fill-rule="evenodd"/></symbol><symbol id="info" viewBox="0 0 16 16"><path d="M8 0a8 8 0 1 0 0 16A8 8 0 0 0 8 0zm0 3.833a.834.834 0 1 1-.001 1.669.834.834 0 0 1 0-1.669zM9.332 12H6.667v-.667c.322-.119.666-.134.666-.49V7.865c0-.356-.344-.412-.666-.531v-.667h2v4.177c0 .357.344.372.666.49V12z" fill="currentColor"/></symbol><symbol id="success" viewBox="0 0 16 16"><path d="M8 16A8 8 0 1 1 8 0a8 8 0 0 1 0 16zM4.352 9.011l2.531 2.649 5.029-5.28a.822.822 0 0 0 0-1.12.724.724 0 0 0-1.062 0L6.883 9.441l-1.47-1.548a.724.724 0 0 0-1.061 0 .822.822 0 0 0 0 1.118z" fill="currentColor"/></symbol><symbol id="warning" viewBox="0 0 16 16"><path d="M8 0a8 8 0 1 0 0 16A8 8 0 0 0 8 0zm-.74 3h1.5v6.7h-1.5V3zM8 13a1 1 0 1 1 0-2 1 1 0 0 1 0 2z" fill="currentColor"/></symbol></svg>
