<svg><defs/><symbol id="add" viewBox="0 0 16 16"><path d="M9.5 6.5h5a1.5 1.5 0 0 1 0 3h-5v5a1.5 1.5 0 0 1-3 0v-5h-5a1.5 1.5 0 0 1 0-3h5v-5a1.5 1.5 0 0 1 3 0v5z"/></symbol><symbol id="arrow-down" viewBox="0 0 16 16"><path d="M8 10.249l5.694-5.844a1.37 1.37 0 0 1 1.885-.058c.537.485.564 1.296.06 1.813L8 14 .36 6.16a1.249 1.249 0 0 1 .061-1.813 1.37 1.37 0 0 1 1.885.058L8 10.25z"/></symbol><symbol id="arrow-left" viewBox="0 0 16 16"><path d="M5.751 8l5.844-5.694a1.37 1.37 0 0 0 .058-1.885A1.249 1.249 0 0 0 9.84.361L2 8l7.84 7.64a1.249 1.249 0 0 0 1.813-.061 1.37 1.37 0 0 0-.058-1.885L5.75 8z"/></symbol><symbol id="arrow-right" viewBox="0 0 16 16"><path d="M10.249 8L4.405 2.306A1.37 1.37 0 0 1 4.347.421 1.249 1.249 0 0 1 6.16.361L14 8l-7.84 7.64a1.249 1.249 0 0 1-1.813-.061 1.37 1.37 0 0 1 .058-1.885L10.25 8z"/></symbol><symbol id="arrow-up" viewBox="0 0 16 16"><path d="M8 5.751l-5.694 5.844a1.37 1.37 0 0 1-1.885.058 1.249 1.249 0 0 1-.06-1.813L8 2l7.64 7.84a1.249 1.249 0 0 1-.061 1.813 1.37 1.37 0 0 1-1.885-.058L8 5.75z"/></symbol><symbol id="cancel" viewBox="0 0 16 16"><path d="M8 6.144l4.76-4.76a1.313 1.313 0 0 1 1.856 1.857L9.856 8l4.76 4.76a1.313 1.313 0 0 1-1.857 1.856L8 9.856l-4.76 4.76a1.313 1.313 0 0 1-1.856-1.857L6.144 8l-4.76-4.76a1.312 1.312 0 1 1 1.857-1.856L8 6.144z"/></symbol><symbol id="check" viewBox="0 0 16 16"><path d="M.44 9.552A1.5 1.5 0 0 1 2.56 7.43l2.937 2.937 7.927-7.928a1.5 1.5 0 0 1 2.121 2.122L5.497 14.573.439 9.552z"/></symbol><symbol id="eip-book" viewBox="0 0 80 80"><path fill-rule="evenodd" d="M68.19 22.613a2.07 2.07 0 0 1 2.06 2.08c0 11.505 0 23.01-.002 34.516 0 .319-.022.639-.052.956-.075.79-.45 1.143-1.236 1.144-2.579.004-5.157.002-7.736.002H42.791c-.814 0-1.31-.371-1.415-1.053-.12-.78.288-1.406 1.073-1.636 4.133-1.21 8.35-1.901 12.657-1.798 2.588.062 5.17.339 7.754.545 1.061.084 2.116.236 3.23.363V24.698c0-1.16.926-2.087 2.073-2.085h.027zM14.422 57.731c1.15-.134 2.241-.264 3.333-.387 3.795-.43 7.592-.706 11.415-.392 3.01.247 5.949.832 8.847 1.656.91.26 1.357 1.07 1.044 1.891-.2.523-.59.809-1.147.81-8.788.002-17.577.002-26.366 0-.784 0-1.16-.354-1.232-1.147a12.274 12.274 0 0 1-.052-1.107c-.003-11.42.005-22.84-.014-34.26-.002-1.032.398-1.66 1.483-2.063.817-.304 1.883.05 2.387.83.194.3.29.719.29 1.084.015 10.814.012 21.629.012 32.444v.64zm47.207-4.783c-6.887-1.571-13.638-1.443-20.26 1.447v-.581c-.003-10.225-.003-20.451-.017-30.676 0-.417.119-.668.47-.9 2.88-1.902 6.051-3.02 9.428-3.618 2.588-.458 5.163-.423 7.709.222.8.203 1.557.583 2.328.896.267.109.375.313.375.632-.008 10.712-.006 21.426-.006 32.139 0 .132-.016.264-.027.44zm-42.774.009v-.635c0-10.595.005-21.19-.01-31.786 0-.457.156-.7.535-.9 1.386-.736 2.888-1.056 4.421-1.199 5.12-.479 9.823.845 14.247 3.377.806.461 1.135.977 1.13 1.964-.048 9.99-.032 19.98-.034 29.97v.645c-6.611-2.883-13.363-3.021-20.29-1.436z"/></symbol><symbol id="eip-choice" viewBox="0 0 80 80"><g fill="#000" fill-rule="evenodd"><path d="M39.763 14.163c2.43 0 4.398-2.051 4.398-4.582C44.16 7.051 42.194 5 39.763 5c-2.428 0-4.396 2.05-4.396 4.581 0 2.53 1.968 4.582 4.396 4.582m-.488 26.74c-2.79 0-4.636-1.987-4.636-4.926 0-2.953 1.846-4.954 4.664-4.954 2.803 0 4.635 1.986 4.635 4.925 0 2.94-1.846 4.955-4.663 4.955m.175-25.26l-.015-.003-.046.002-.047-.002-.015.004c-2.978.057-4.589.436-6.216 1.169l-16.566 8.55 1 2.288 14.728-6.288 1.737 8.094-6.31 30.002h7.165l1.445 15.013h2.127V59.459h1.903v15.013h2.127l1.444-15.013h7.166l-6.374-29.906.007-.096 1.73-8.094 14.728 6.288 1-2.288-16.565-8.55c-1.628-.733-3.176-1.112-6.153-1.17"/><path d="M39.289 33.161c-1.166 0-1.818 1.09-1.818 2.802 0 1.71.652 2.801 1.818 2.801s1.818-1.09 1.818-2.801c0-1.712-.652-2.802-1.818-2.802m-22.195 5.41c-1.25 0-2.263-.87-2.263-2.608 0-1.67.848-2.608 2.069-2.608.75 0 1.443.303 1.97.704l.39-2.47c-.68-.332-1.555-.539-2.61-.539-2.748 0-4.65 1.973-4.65 4.926 0 2.995 1.763 4.899 4.747 4.899 1.041 0 1.846-.22 2.65-.607l-.36-2.235c-.694.344-1.29.538-1.943.538zm41.626 0c-1.25 0-2.263-.87-2.263-2.608 0-1.67.847-2.608 2.069-2.608.749 0 1.443.303 1.97.704l.388-2.47c-.679-.332-1.554-.539-2.608-.539-2.748 0-4.65 1.973-4.65 4.926 0 2.995 1.763 4.899 4.746 4.899 1.042 0 1.846-.22 2.651-.607l-.36-2.235c-.694.344-1.29.538-1.943.538zm11.365-7.369v2.194h-3.54v1.297h2.68l.36 2.277h-3.04v1.559h3.665v2.194h-6.44v-9.52h6.315zm-45.097 3.395h2.652v-3.395h2.845v9.521H27.64V37.04h-2.652v3.684h-2.845v-9.52h2.845v3.394zm25.855 6.126h-2.846v-9.521h2.846v9.52z"/></g></symbol><symbol id="eip-community" viewBox="0 0 80 80"><path fill-rule="evenodd" d="M24.09 74.055l3.095-16.749-.032-2.03-2.344 7.52-1.17-.43 1.944-9.104c.444-1.805.575-2.306 2.315-2.538l.011.007c.008 0 .015-.007.022-.008.348-.039 1.903-.082 1.903-.082h.048s1.546.043 1.894.082c.008.001.014.008.022.008l.01-.007c1.741.232 1.873.733 2.316 2.538l1.945 9.105-1.17.429-2.345-7.52-.033 2.03 3.097 16.75h-3.534L31.372 80h-1.05v-5.945h-.937V80h-1.05l-.712-5.945H24.09zm18.996-10.851h1.848l1.163-8.057.225 3.798-.484 5.236 1.205 15.816h1.927V66.703h.558L49.531 80h2.085l.945-15.814-.55-5.241.431-3.898 1.473 8.191 1.497-.048-1.102-9.966c-.712-2.866-2.067-3.548-5.086-3.588-3.218-.042-4.14.885-4.84 3.685l-1.298 9.883zM11.451 49.228l3.096-16.749-.032-2.03-2.345 7.52-1.17-.43 1.945-9.104c.443-1.805.575-2.305 2.315-2.538l.01.007c.008 0 .015-.007.023-.007.347-.04 1.902-.084 1.902-.084h.048s1.546.044 1.895.084c.007 0 .013.006.022.007l.01-.007c1.74.233 1.872.733 2.316 2.538l1.944 9.104-1.17.43-2.344-7.52-.033 2.03 3.096 16.749h-3.533l-.713 5.945h-1.049v-5.945h-.938v5.945h-1.05l-.711-5.945H11.45zm44.57-.845l3.096-16.748-.033-2.03-2.344 7.519-1.17-.43 1.945-9.103c.443-1.806.575-2.306 2.315-2.538l.011.006c.008 0 .014-.006.022-.007.348-.039 1.902-.083 1.902-.083h.048s1.547.044 1.894.083c.009 0 .014.007.023.007l.01-.006c1.74.232 1.873.732 2.315 2.538L68 36.695l-1.17.429-2.344-7.52-.033 2.03 3.097 16.749h-3.535l-.711 5.945h-1.05v-5.945h-.937v5.945h-1.05l-.712-5.945h-3.534zm-26.115 1.49c1.198 0 2.169-1.024 2.169-2.287 0-1.262-.97-2.285-2.17-2.285-1.196 0-2.167 1.023-2.167 2.285 0 1.263.97 2.286 2.168 2.286zm19.263-1.078c1.147 0 2.293-.92 2.293-2.427 0-1.506-1.146-2.426-2.293-2.426-1.1 0-2.246.92-2.246 2.426 0 1.465 1.1 2.427 2.246 2.427zM24.395 19.277l1.848.001 1.163-8.058.225 3.797-.485 5.236 1.206 15.817h1.926V22.777h.558l.003 13.296h2.085l.946-15.813-.551-5.243.431-3.896 1.474 8.19 1.497-.048-1.102-9.967c-.712-2.865-2.068-3.547-5.086-3.586-3.219-.043-4.14.885-4.84 3.685l-1.298 9.882zm17.464-.015l1.848.001 1.163-8.058.225 3.798-.485 5.236 1.206 15.816h1.926V22.762h.559l.003 13.296h2.083l.947-15.813-.551-5.242.432-3.897 1.473 8.191 1.497-.049-1.102-9.966c-.712-2.866-2.068-3.548-5.086-3.587-3.218-.042-4.14.885-4.84 3.685l-1.298 9.882zm-24.592 5.783c1.199 0 2.17-1.023 2.17-2.286 0-1.262-.971-2.286-2.17-2.286-1.197 0-2.167 1.024-2.167 2.286 0 1.263.97 2.286 2.167 2.286zm44.57-.845c1.2 0 2.17-1.023 2.17-2.285 0-1.262-.97-2.285-2.17-2.285-1.196 0-2.167 1.023-2.167 2.285 0 1.262.97 2.285 2.167 2.285zM30.477 4.868c1.148 0 2.293-.92 2.293-2.427 0-1.505-1.145-2.427-2.293-2.427-1.099 0-2.246.922-2.246 2.427 0 1.465 1.1 2.427 2.246 2.427zm17.464-.015c1.148 0 2.293-.92 2.293-2.427C50.234.921 49.09 0 47.941 0c-1.1 0-2.245.92-2.245 2.426 0 1.465 1.1 2.427 2.245 2.427z"/></symbol><symbol id="eip-contraceptives" viewBox="0 0 80 80"><path fill-rule="evenodd" d="M39.116 53.594c0-.71.377-1.238.714-1.238.336 0 .714.527.714 1.238v2.217c0 .708-.378 1.238-.714 1.238-.337 0-.714-.53-.714-1.238v-2.217zm-18.202-40.66c1.57-.078 2.834-.826 3.064-1.74h9.745c.241.207.552.334.893.334h3.985l-.02 6.082c-.205.024-.358.057-.358.105 0 .644-.177 1.251-1.429 2.753v27.38s1.252.834 1.252 2.085h.798v1.146c-.762.445-1.282 1.39-1.282 2.515v2.217c0 1.147.538 2.108 1.325 2.542-.37 2.033-1.893 6.728-4.169 11.99h1.057c1.78-4.165 3.165-8.14 3.796-10.621.622 2.46 1.989 6.395 3.797 10.62h1.058c-2.202-5.099-3.7-9.674-4.127-11.795 1.039-.261 1.798-1.369 1.798-2.736v-2.217c0-1.142-.531-2.096-1.31-2.533v-1.128h.753c0-1.251 1.25-2.085 1.25-2.085v-27.38c-1.25-1.502-1.428-2.109-1.428-2.753 0-.045-.14-.078-.331-.102l-.02-6.085h3.81c.341 0 .65-.127.891-.334h9.922c.231.914 1.496 1.662 3.064 1.74 1.77.092 3.247-.701 3.301-1.77.054-1.068-1.335-2.006-3.104-2.096-.144-.007-.282 0-.421.006V9.06H45.687a1.376 1.376 0 0 0-.867-.312H34.616c-.33 0-.63.12-.868.312h-12.61v.015c-.139-.006-.277-.013-.42-.006-1.77.09-3.16 1.028-3.105 2.096.054 1.069 1.532 1.862 3.3 1.77z"/></symbol><symbol id="eip-coordination" viewBox="0 0 80 80"><path fill-rule="evenodd" d="M33.637 64.03A6.53 6.53 0 0 1 40 58.952c3.6 0 6.524 2.923 6.524 6.524 0 3.6-2.923 6.524-6.524 6.524a6.527 6.527 0 0 1-6.375-7.917l.012-.053zM17.674 48.83a22.81 22.81 0 0 0 1.437 3.097c2.676 4.784 7.083 8.483 12.184 10.511a9.572 9.572 0 0 0-.609 2.915c-7.217-2.755-13.216-8.725-15.88-16.041a8.74 8.74 0 0 0 2.868-.482zm44.702-.117a9.949 9.949 0 0 0 2.81.583 25.685 25.685 0 0 1-1.89 4.163c-3.06 5.396-8.115 9.55-13.945 11.77a8.582 8.582 0 0 0-.477-2.764c6.082-2.5 11.126-7.566 13.502-13.752zm-20.951-7.094v14.605a8.78 8.78 0 0 0-1.666-.118c-.403.012-.798.05-1.184.115V41.618H23.701a9.05 9.05 0 0 0 .112-2.85h14.762V23.69a9.403 9.403 0 0 0 2.85.071v15.007h14.849a8.89 8.89 0 0 0-.021 2.85H41.425zm-26.901-8.142c3.6 0 6.524 2.923 6.524 6.524 0 3.6-2.923 6.524-6.524 6.524A6.527 6.527 0 0 1 8 40c0-3.6 2.923-6.524 6.524-6.524zm50.952 0c3.6 0 6.524 2.923 6.524 6.524 0 3.6-2.923 6.524-6.524 6.524A6.527 6.527 0 0 1 58.952 40c0-3.6 2.923-6.524 6.524-6.524zm-16.172-18.2c6.418 2.46 11.936 7.327 14.89 13.551.282.595.54 1.2.775 1.814a8.767 8.767 0 0 0-2.962.7C59.784 25.899 55.65 21.192 50.1 18.6a23.171 23.171 0 0 0-1.475-.628 9.762 9.762 0 0 0 .679-2.694zm-18.619-.079a8.35 8.35 0 0 0 .642 2.88C25.74 20.313 20.967 24.6 18.38 30.048c-.192.405-.372.815-.54 1.23a9.141 9.141 0 0 0-2.688-.628c1.802-4.674 4.861-8.879 8.967-11.912a26.627 26.627 0 0 1 6.565-3.542zm15.554 1.238A6.53 6.53 0 0 1 40 21.048a6.527 6.527 0 0 1-6.524-6.524C33.476 10.924 36.4 8 40 8a6.527 6.527 0 0 1 6.24 8.433l-.001.002z"/></symbol><symbol id="eip-couple" viewBox="0 0 80 80"><path fill="#000" d="M33.26 25.967c-.029.1-.155.446-.201.545A2.21 2.21 0 0 1 30.18 27.6a2.1 2.1 0 0 1-1.065-2.82c.057-.118.244-.398.316-.503 1.493-.287 3.18.03 3.83 1.69zm-8.247 7.993c-.573-3.348 1.606-5.723 2.129-6.34.339-.398.575-.335.97-2.136.432-1.956 2.479-3.15 4.898-2.35 2.091.691 2.672 2.607 2.144 4.105-.529 1.488-1.007 1.564-1.365 2.307-.385.807-.347 1.123-.347 1.123l-8.43 3.29zm1.389-17.549C24.157 16.411 22 14.544 22 11.7c0-2.923 2.248-4.71 4.402-4.71 2.248 0 4.493 1.787 4.493 4.71 0 2.925-2.245 4.711-4.493 4.711zm-6.923 14.007l1.202-4.156.087 4.769-1.289-.613zm13.723 3.999l4.437-1.702c1.088-.398 1.172-.96.859-1.987l-2.007-7.265c-.905-3.563-1.792-4.702-5.468-5.066-.822-.08-2.976-.16-4.315-.16-1.341 0-3.52.082-4.31.16-3.675.364-4.564 1.503-5.469 5.066l-2.005 7.265c-.313 1.027-.23 1.59.86 1.987l4.436 1.702L14 63.172h7.724l1.558 11.41h2.295v-11.41h2.268v11.41h2.293l1.558-11.41h7.726l-6.22-28.755zm6.22 7.702l2.848-19.044c1.539-5.394 3.562-7.182 10.627-7.102 6.629.078 9.604 1.391 11.169 6.913l2.42 19.208-3.288.093-3.234-15.785-.95 7.51 1.213 10.1-2.078 30.476H53.57l-.006-25.624h-1.226v25.618h-4.228l-2.65-30.48 1.068-10.09-.495-7.32-2.556 15.53-4.055-.003zm13.402-27.698c-2.244 0-4.401-1.867-4.401-4.712C48.423 6.787 50.67 5 52.824 5c2.25 0 4.494 1.787 4.494 4.71 0 2.925-2.245 4.71-4.494 4.71z" fill-rule="evenodd"/></symbol><symbol id="eip-equality" viewBox="0 0 80 80"><path fill-rule="evenodd" d="M15.999 19A4 4 0 1 1 16 11 4 4 0 0 1 16 19zm4.78 9.21l-.057 3.596L26.2 61.47h-6.254L18.687 72H16.83V61.47h-1.66V72h-1.857l-1.26-10.53H5.797l5.48-29.664-.058-3.595-4.15 13.317-2.07-.76 3.443-16.124c.784-3.199 1.016-4.084 4.097-4.496l.018.013c.014-.002.026-.012.04-.014.616-.068 3.368-.147 3.368-.147h.083s2.737.079 3.353.147c.014.002.026.012.04.014l.018-.013c3.08.412 3.313 1.297 4.097 4.496L27 40.768l-2.07.76-4.15-13.317zM63.96 17C61.939 17 60 15.216 60 12.5 60 9.706 62.021 8 63.959 8 65.98 8 68 9.707 68 12.5c0 2.794-2.019 4.5-4.041 4.5zM53 42.13l2.315-17.575c1.25-4.978 2.896-6.628 8.64-6.553 5.387.07 7.807 1.283 9.079 6.38L75 42.107l-2.672.085-2.63-14.567-.771 6.931.985 9.321L68.222 72h-3.72l-.005-23.645H63.5v23.64h-3.438l-2.154-28.128.868-9.311-.403-6.755-2.076 14.331L53 42.13zM33 39h12v4H33v-4zm0-7h12v4H33v-4z"/></symbol><symbol id="eip-youth" viewBox="0 0 80 80"><path fill-rule="evenodd" d="M12.894 72.981H9.06L7.318 44.045l1.015-9.593-.795-7.13-4.346 15.52L0 42.223l4.1-18.237c1.31-5.244 3.805-6.493 9.359-6.565 5.92-.077 7.616 1.62 8.905 6.742l3.798 15.034L31.509 23.5c1.418-4.435 1.596-4.857 6.207-4.879 9.088-.041 9.134 0 10.64 4.879l4.173 13.554L57.146 23.5c1.419-4.435 1.597-4.857 6.207-4.879 9.09-.041 9.134 0 10.641 4.879L80 42.96h-2.18l-7.196-16.443-1.153 5.056 3.54 17.637H71.36L68.496 73h-1.951V49.318h-2.216V73h-2.04l-2.571-23.829H58.32l3.349-17.598-1.418-5.056-6.99 16.444h-1.416l-6.858-16.444-1.153 5.056 3.54 17.637h-1.652L42.858 73h-1.95V49.318H38.69V73h-2.04L34.08 49.171h-1.398l3.35-17.598-1.42-5.056-7.02 16.44h-4.02L19.21 27.504l-.415 6.95.894 9.58-2.219 28.942h-3.544V48.651h-1.027l-.005 24.33zm27.107-55.847c-2.109 0-4.218-1.66-4.218-4.377 0-2.715 2.11-4.375 4.218-4.375 2.025 0 4.134 1.66 4.134 4.375 0 2.643-2.026 4.377-4.134 4.377zm25.638 0c-2.11 0-4.218-1.66-4.218-4.377 0-2.715 2.109-4.375 4.218-4.375 2.024 0 4.133 1.66 4.133 4.375 0 2.643-2.025 4.377-4.133 4.377zM13.56 15.88c-2.111 0-4.218-1.683-4.218-4.44C9.342 8.685 11.449 7 13.56 7c2.022 0 4.133 1.685 4.133 4.44 0 2.681-2.025 4.44-4.133 4.44z"/></symbol></svg>