<svg><defs/><symbol id="arrow-down-midtone"><path d="M8 10.249l5.694-5.844a1.37 1.37 0 0 1 1.885-.058c.537.485.564 1.296.06 1.813L8 14 .36 6.16a1.249 1.249 0 0 1 .061-1.813 1.37 1.37 0 0 1 1.885.058L8 10.25z" fill="#8DA3C0" fill-rule="nonzero"/></symbol><symbol id="arrow-up-midtone"><path d="M8 5.751l-5.694 5.844a1.37 1.37 0 0 1-1.885.058 1.249 1.249 0 0 1-.06-1.813L8 2l7.64 7.84a1.249 1.249 0 0 1-.061 1.813 1.37 1.37 0 0 1-1.885-.058L8 5.75z" fill="#8DA3C0" fill-rule="nonzero"/></symbol><symbol id="close-midtone"><path d="M8 6.144l4.76-4.76a1.313 1.313 0 0 1 1.856 1.857L9.856 8l4.76 4.76a1.313 1.313 0 0 1-1.857 1.856L8 9.856l-4.76 4.76a1.313 1.313 0 0 1-1.856-1.857L6.144 8l-4.76-4.76a1.312 1.312 0 1 1 1.857-1.856L8 6.144z" fill="#8DA3C0" fill-rule="nonzero"/></symbol><symbol id="add" viewBox="0 0 16 16"><path d="M9.5 6.5h5a1.5 1.5 0 0 1 0 3h-5v5a1.5 1.5 0 0 1-3 0v-5h-5a1.5 1.5 0 0 1 0-3h5v-5a1.5 1.5 0 0 1 3 0v5z" fill="currentColor"/></symbol><symbol id="arrow-down" viewBox="0 0 16 16"><path d="M8 10.249l5.694-5.844a1.37 1.37 0 0 1 1.885-.058c.537.485.564 1.296.06 1.813L8 14 .36 6.16a1.249 1.249 0 0 1 .061-1.813 1.37 1.37 0 0 1 1.885.058L8 10.25z" fill="currentColor"/></symbol><symbol id="arrow-left" viewBox="0 0 16 16"><path d="M5.751 8l5.844-5.694a1.37 1.37 0 0 0 .058-1.885A1.249 1.249 0 0 0 9.84.361L2 8l7.84 7.64a1.249 1.249 0 0 0 1.813-.061 1.37 1.37 0 0 0-.058-1.885L5.75 8z" fill="currentColor"/></symbol><symbol id="arrow-right" viewBox="0 0 16 16"><path d="M10.249 8L4.405 2.306A1.37 1.37 0 0 1 4.347.421 1.249 1.249 0 0 1 6.16.361L14 8l-7.84 7.64a1.249 1.249 0 0 1-1.813-.061 1.37 1.37 0 0 1 .058-1.885L10.25 8z" fill="currentColor"/></symbol><symbol id="arrow-up" viewBox="0 0 16 16"><path d="M8 5.751l-5.694 5.844a1.37 1.37 0 0 1-1.885.058 1.249 1.249 0 0 1-.06-1.813L8 2l7.64 7.84a1.249 1.249 0 0 1-.061 1.813 1.37 1.37 0 0 1-1.885-.058L8 5.75z" fill="currentColor"/></symbol><symbol id="check" viewBox="0 0 16 16"><path d="M.44 9.552A1.5 1.5 0 0 1 2.56 7.43l2.937 2.937 7.927-7.928a1.5 1.5 0 0 1 2.121 2.122L5.497 14.573.439 9.552z" fill="currentColor"/></symbol><symbol id="close" viewBox="0 0 16 16"><path d="M8 6.144l4.76-4.76a1.313 1.313 0 0 1 1.856 1.857L9.856 8l4.76 4.76a1.313 1.313 0 0 1-1.857 1.856L8 9.856l-4.76 4.76a1.313 1.313 0 0 1-1.856-1.857L6.144 8l-4.76-4.76a1.312 1.312 0 1 1 1.857-1.856L8 6.144z" fill="currentColor" fill-rule="evenodd"/></symbol><symbol id="download" viewBox="0 0 16 16"><path d="M10.667 7.333H14L8 14 2 7.333h3.333V0h5.334v7.333zm.666 7.334H4.667V16h6.666v-1.333z" fill="currentColor"/></symbol><symbol id="eip-choice" viewBox="0 0 80 80"><path d="M40 0c22.077 0 40 17.923 40 40 0 22.076-17.923 40-40 40S0 62.076 0 40C0 17.923 17.923 0 40 0zm1.778 61.06v-7.765L38.222 51.5v9.56c0 1.067.8 1.94 1.778 1.94s1.778-.873 1.778-1.94zM33.74 41.002c1.013-.328 1.593-1.36 1.255-2.344a1.927 1.927 0 0 0-2.413-1.219c-.145.047-.338.14-.483.234-2.413 1.126-3.427 3.891-2.317 6.235a4.838 4.838 0 0 0 2.317 2.25l5.55 2.532 7.722 3.563c.483.235.724.844.483 1.313-.097.187-.29.375-.483.469-1.013.328-1.592 1.36-1.255 2.344a1.927 1.927 0 0 0 2.413 1.218c.145-.046.338-.14.483-.234 2.413-1.125 3.427-3.891 2.317-6.235a4.838 4.838 0 0 0-2.317-2.25l-7.722-3.516-5.55-2.532c-.483-.234-.724-.844-.483-1.312.097-.235.242-.422.483-.516zm-1.026 16.585c.922.346 1.931-.197 2.238-1.234.264-.89-.044-1.828-.746-2.322-.439-.247-.658-.889-.439-1.383.088-.197.264-.395.44-.494l2.237-1.185-4.037-2.124c-2.107 1.383-2.809 4.396-1.58 6.767.395.84 1.097 1.53 1.887 1.975zm10.842-12.584l4.037 2.073c2.107-1.35 2.809-4.29 1.58-6.603a4.757 4.757 0 0 0-1.887-1.928c-.79-.578-1.887-.337-2.414.53-.526.868-.307 2.073.483 2.651.132.096.263.193.439.241.439.241.658.868.439 1.35a1.115 1.115 0 0 1-.44.482l-2.237 1.204zm-26.032-8.782a41.74 41.74 0 0 0 7.402.683c4.47.049 8.94-.83 13.113-2.49v8.153l2.931 1.367.993.488V34.415a34.522 34.522 0 0 0 13.114 2.441 41.74 41.74 0 0 0 7.402-.683 1.898 1.898 0 0 0 1.49-1.465c.149-.78-.249-1.513-.894-1.904-3.279-1.806-6.06-4.345-8.196-7.371a2.442 2.442 0 0 0-1.69-1.074c-.695-.098-1.44.048-1.986.488-2.782 1.953-5.862 3.515-9.14 4.54v-2.93c2.533-1.073 3.725-3.953 2.633-6.443-1.143-2.539-4.074-3.662-6.607-2.636-2.533 1.025-3.726 3.954-2.633 6.444a4.841 4.841 0 0 0 2.633 2.587v2.93a32.827 32.827 0 0 1-9.19-4.541c-.546-.44-1.291-.586-1.987-.488a2.442 2.442 0 0 0-1.688 1.074c-2.136 3.075-4.968 5.565-8.296 7.42a1.791 1.791 0 0 0-.894 1.904 1.891 1.891 0 0 0 1.49 1.514z" fill="currentColor" fill-rule="evenodd"/></symbol><symbol id="eip-community" viewBox="0 0 80 80"><path d="M40 0c22.076 0 40 17.923 40 40 0 22.076-17.924 40-40 40S0 62.075 0 40C0 17.923 17.924 0 40 0zm4.812 45.882c0-1.381-.814-2.73-2.436-2.73h-4.752c-1.622 0-2.436 1.349-2.436 2.73v6.329c-.005 1.247 1.633 1.247 1.633 0v-6.2h.516l.005 16.829c0 .642.52 1.16 1.166 1.16.645 0 1.172-.518 1.172-1.16l-.005-9.76h.65l-.005 9.76c0 .642.526 1.16 1.172 1.16.645 0 1.171-.518 1.171-1.16l.006-16.828h.51v6.199c0 1.247 1.638 1.247 1.633 0v-6.329zm2.308-2.123h.523l-.001 16.828c0 .642.524 1.163 1.17 1.163.646 0 1.17-.521 1.17-1.163v-9.76h.521l-.003 9.76c0 .642.524 1.163 1.17 1.163.645 0 1.169-.521 1.169-1.163l.005-16.828h.513v6.202c0 1.247 1.637 1.247 1.633 0v-6.335c0-1.378-.814-2.729-2.435-2.729l-4.677-.002c-1.478 0-2.403 1.199-2.403 2.693v6.372c0 1.239 1.645 1.239 1.645 0v-6.2zm-14.763 0h.523v6.201c0 1.239 1.645 1.239 1.645 0v-6.372c0-1.495-.925-2.693-2.403-2.693l-4.677.002c-1.621 0-2.435 1.35-2.435 2.73v6.333c-.004 1.247 1.633 1.247 1.633 0V43.76h.513l.005 16.827c0 .642.524 1.164 1.17 1.164.645 0 1.169-.522 1.169-1.164l-.003-9.76h.52l.001 9.76c0 .642.524 1.164 1.17 1.164.646 0 1.17-.522 1.17-1.164l-.001-16.827zm24.295 6.374c0 .642.525 1.163 1.17 1.163.646 0 1.17-.521 1.17-1.163v-9.76h.522l-.004 9.76c0 .642.524 1.163 1.17 1.163.646 0 1.169-.521 1.169-1.163l.005-16.828h.513v6.202c0 1.247 1.637 1.247 1.633 0v-6.334c0-1.379-.814-2.73-2.435-2.73l-4.677-.002c-1.478 0-2.403 1.199-2.403 2.693v6.372c0 1.239 1.645 1.239 1.645 0v-6.2h.524l-.002 16.827zm-39.02-16.828h.513l.006 16.827c0 .642.523 1.164 1.169 1.164s1.17-.522 1.17-1.164l-.004-9.76h.521l.001 9.76c0 .642.524 1.164 1.17 1.164.645 0 1.17-.522 1.17-1.164l-.002-16.827h.524v6.201c0 1.239 1.645 1.239 1.645 0v-6.372c0-1.495-.925-2.693-2.403-2.693l-4.677.002c-1.621 0-2.435 1.351-2.435 2.73v6.333c-.004 1.247 1.633 1.247 1.633 0v-6.201zm24.386 7.338A2.074 2.074 0 0 0 40 38.577a2.099 2.099 0 0 0-1.427.626c-.364.372-.591.88-.591 1.44 0 1.122.9 2.029 2.018 2.067a2.074 2.074 0 0 0 2.018-2.067zm8.091-4.33c-1.152 0-2.087.93-2.087 2.076s.935 2.076 2.087 2.076c1.152 0 2.087-.93 2.087-2.076a2.082 2.082 0 0 0-2.087-2.075zm-20.218 0c-1.151 0-2.086.93-2.086 2.076s.935 2.076 2.086 2.076c1.152 0 2.087-.93 2.087-2.076a2.082 2.082 0 0 0-2.087-2.075zM44.811 21.3c0-1.376-.813-2.725-2.436-2.725l-2.376-.005-2.371.005c-1.622 0-2.436 1.35-2.436 2.725v6.335c-.005 1.246 1.634 1.246 1.634 0v-6.2h.509l.005 15.987c.76.043 1.541.07 2.34.076v-8.995h.64v8.995c.797-.006 1.578-.033 2.338-.076l.005-15.987h.516v6.2c0 1.246 1.633 1.246 1.633 0V21.3zm2.365 1.731h.524l-.002 13.547a20.95 20.95 0 0 0 2.34-.627v-5.853h.521l-.001 5.665c1.028-.391 1.827-.842 2.339-1.333l.004-11.4h.512v6.202c0 1.247 1.637 1.247 1.633 0v-6.334c0-1.378-.814-2.728-2.435-2.728l-4.677-.002c-1.478 0-2.403 1.198-2.403 2.693v6.372c0 1.238 1.645 1.238 1.645 0V23.03zm-20.589 0h.513l.004 11.398c.511.491 1.31.942 2.339 1.333l-.002-5.664h.521v5.852a20.95 20.95 0 0 0 2.34.627l-.001-13.546h.523v6.202c0 1.238 1.646 1.238 1.646 0V22.86c0-1.495-.926-2.693-2.404-2.693l-4.676.002c-1.622 0-2.436 1.35-2.436 2.728v6.334c-.004 1.247 1.633 1.247 1.633 0v-6.201zM59.12 25.86c-1.152 0-2.087.93-2.087 2.076 0 1.145.935 2.075 2.087 2.075 1.152 0 2.087-.93 2.087-2.075a2.082 2.082 0 0 0-2.087-2.076zm-38.238 0c-1.152 0-2.087.93-2.087 2.076 0 1.145.935 2.075 2.087 2.075 1.152 0 2.087-.93 2.087-2.075a2.082 2.082 0 0 0-2.087-2.076zm8.955-10.274c-1.152 0-2.087.93-2.087 2.075 0 1.146.935 2.076 2.087 2.076 1.151 0 2.086-.93 2.086-2.076a2.082 2.082 0 0 0-2.086-2.075zm20.329 0c-1.152 0-2.087.93-2.087 2.075 0 1.146.935 2.076 2.087 2.076 1.151 0 2.086-.93 2.086-2.076a2.082 2.082 0 0 0-2.086-2.075zm-8.153.48A2.073 2.073 0 0 0 40 14a2.073 2.073 0 0 0-2.013 2.066c0 1.123.895 2.03 2.013 2.067a2.073 2.073 0 0 0 2.012-2.067z" fill="currentColor" fill-rule="evenodd"/></symbol><symbol id="eip-contraceptives" viewBox="0 0 80 80"><path d="M40 0c22.077 0 40 17.923 40 40S62.077 80 40 80C17.924 80 0 62.077 0 40S17.924 0 40 0zm4.08 16.228h-8.303c-.27 0-.513.098-.706.254H24.809v.012c-.113-.005-.226-.01-.343-.005-1.44.074-2.57.837-2.526 1.706.044.87 1.247 1.515 2.686 1.44 1.278-.063 2.307-.672 2.494-1.416h7.93c.196.169.448.272.727.272h3.242l-.015 4.95c-.168.019-.292.046-.292.085 0 .524-.144 1.018-1.162 2.24v22.281s1.018.679 1.018 1.697h.649v.932c-.62.363-1.043 1.131-1.043 2.047v1.804c0 .934.438 1.716 1.078 2.07-.3 1.653-1.54 5.474-3.392 9.756h.86c1.448-3.389 2.575-6.624 3.088-8.643.507 2.002 1.62 5.204 3.09 8.643h.862c-1.792-4.15-3.011-7.873-3.359-9.6.846-.212 1.463-1.113 1.463-2.226v-1.804c0-.93-.432-1.705-1.066-2.061v-.918h.614c0-1.018 1.017-1.697 1.017-1.697v-22.28c-1.017-1.223-1.162-1.717-1.162-2.241 0-.037-.114-.064-.27-.083l-.016-4.952h3.1c.277 0 .529-.103.725-.272h8.075c.187.744 1.217 1.353 2.493 1.417 1.44.074 2.642-.571 2.686-1.441.045-.869-1.087-1.632-2.526-1.706-.117-.006-.23 0-.343.005v-.012H44.786a1.121 1.121 0 0 0-.705-.254zm-4.64 36.495c0-.578.305-1.007.58-1.007.273 0 .58.429.58 1.007v1.804c0 .576-.307 1.008-.58 1.008-.275 0-.58-.432-.58-1.008v-1.804z" fill="currentColor" fill-rule="evenodd"/></symbol><symbol id="eip-coordination" viewBox="0 0 80 80"><path d="M40 0c22.077 0 40 17.923 40 40S62.077 80 40 80C17.924 80 0 62.077 0 40S17.924 0 40 0zm-5.037 59.023A5.169 5.169 0 0 1 40 55.003a5.167 5.167 0 0 1 5.165 5.165A5.167 5.167 0 0 1 40 65.332a5.167 5.167 0 0 1-5.052-6.24l.006-.027.01-.042zM22.326 46.99c.318.843.697 1.664 1.138 2.452 2.118 3.788 5.607 6.715 9.645 8.321a7.583 7.583 0 0 0-.482 2.308c-5.714-2.182-10.463-6.908-12.572-12.7a6.918 6.918 0 0 0 2.27-.381zm35.388-.092c.717.26 1.469.418 2.224.461a20.316 20.316 0 0 1-1.495 3.296c-2.424 4.271-6.425 7.56-11.04 9.317a6.77 6.77 0 0 0-.378-2.188c4.815-1.98 8.808-5.99 10.689-10.886zm-16.586-7.872v-11.88a7.445 7.445 0 0 1-2.256-.057v11.937H27.186a7.159 7.159 0 0 1-.09 2.256h11.776V52.84a6.924 6.924 0 0 1 1.176-.093c.363.004.724.036 1.08.096V41.28h11.738a7.036 7.036 0 0 1 .017-2.256H41.128zm-21.296-4.19A5.167 5.167 0 0 1 24.997 40a5.167 5.167 0 0 1-5.165 5.164A5.167 5.167 0 0 1 14.668 40a5.167 5.167 0 0 1 5.164-5.165zm40.336 0A5.167 5.167 0 0 1 65.333 40a5.168 5.168 0 0 1-5.165 5.164A5.167 5.167 0 0 1 55.003 40a5.167 5.167 0 0 1 5.165-5.165zM47.366 20.428c5.08 1.946 9.448 5.8 11.787 10.727.223.47.428.95.613 1.436a6.938 6.938 0 0 0-2.344.555c-1.76-4.31-5.034-8.035-9.427-10.088a18.38 18.38 0 0 0-1.167-.497 7.729 7.729 0 0 0 .538-2.133zm-14.74-.063a6.61 6.61 0 0 0 .508 2.28c-4.422 1.77-8.2 5.164-10.248 9.478-.152.32-.295.644-.427.973a7.237 7.237 0 0 0-2.129-.497c1.427-3.7 3.849-7.029 7.099-9.43a21.066 21.066 0 0 1 5.197-2.804zm12.313.98A5.17 5.17 0 0 1 40 24.997a5.167 5.167 0 0 1-5.164-5.165A5.167 5.167 0 0 1 40 14.667a5.167 5.167 0 0 1 4.94 6.676v.002z" fill="currentColor" fill-rule="evenodd"/></symbol><symbol id="eip-education" viewBox="0 0 80 80"><g fill="none" fill-rule="evenodd"><path d="M40 0c22.077 0 40 17.923 40 40S62.077 80 40 80C17.924 80 0 62.077 0 40S17.924 0 40 0z" fill="currentColor"/><path d="M56.268 55.113c2.958 0 5.345 1.637 5.345 3.682V59H50.871v-.205c0-2.045 2.335-3.682 5.293-3.682h.104zm-15.671 0c2.906 0 5.293 1.637 5.345 3.682V59H35.2v-.205c0-2.045 2.335-3.682 5.293-3.682h.104zm-19.563-13.45c.415 0 .778.05 1.141.102.104 0 .26.05.363.05l8.251 1.637 4.048-3.426c.467-.41 1.141-.512 1.712-.307l6.02-7.774a.59.59 0 0 1 .83-.103.57.57 0 0 1 .104.819l-6.072 7.723c.52.716.364 1.687-.415 2.301l-4.67 3.99a1.83 1.83 0 0 1-1.142.408c-.155 0-.26-.05-.363-.05l-4.93-.972v12.888H16V45.805c0-2.302 2.231-4.143 4.93-4.143h.104zm35.182 4.295c2.32 0 4.203 1.857 4.203 4.143 0 2.286-1.883 4.143-4.203 4.143-2.32 0-4.203-1.857-4.203-4.143 0-2.286 1.883-4.143 4.203-4.143zm-15.671 0c2.32 0 4.203 1.857 4.203 4.143 0 2.286-1.883 4.143-4.203 4.143-2.32 0-4.203-1.857-4.203-4.143 0-2.286 1.883-4.143 4.203-4.143zM63.118 21c.519 0 .882.41.882.87v21.48c0 .46-.415.87-.882.87H39.04c-.467 0-.882-.41-.882-.87s.415-.87.882-.87h23.196V22.74H29.959v18.105c0 .46-.415.87-.882.87s-.882-.41-.882-.87V21.869c0-.46.415-.869.882-.869h34.04zM21.034 31.229c2.606 0 4.722 2.085 4.722 4.654s-2.116 4.654-4.722 4.654c-2.607 0-4.723-2.085-4.723-4.654s2.116-4.654 4.723-4.654zm36.947 7.058c.518 0 .882.358.934.87 0 .46-.416.869-.883.869H44.644c-.467 0-.882-.41-.882-.87s.415-.87.882-.87h13.337zm0-6.547c.518 0 .882.358.934.87 0 .46-.416.87-.883.87H47.187c-.467 0-.882-.41-.882-.87s.415-.87.882-.87h10.794zm0-6.188c.518 0 .882.409.882.87 0 .46-.415.869-.882.869H36.705c-.467 0-.882-.41-.882-.87s.415-.87.882-.87H57.98z" fill="#FFF"/></g></symbol><symbol id="eip-equality" viewBox="0 0 80 80"><path d="M40 0c22.077 0 40 17.923 40 40 0 22.076-17.923 40-40 40C17.924 80 0 62.076 0 40 0 17.923 17.924 0 40 0zM25.316 28.336h-4.773c-1.992 0-2.787 1.63-3.046 2.548l-2.423 8.055c-.503 1.732 1.696 2.395 2.216.779l2.182-7.415h.586l-3.751 13.143H19.8v10.232c0 1.762 2.614 1.762 2.614 0l-.002-10.299h1.061v10.314c0 1.738 2.603 1.747 2.603 0V45.446h3.483l-3.78-13.143h.634l2.181 7.39c.52 1.686 2.7.969 2.217-.762l-2.424-8.047c-.299-.905-1.1-2.548-3.072-2.548zm36.386-.034l-6.335-.002c-2 0-3.254 1.647-3.254 3.703v8.761c0 1.703 2.228 1.703 2.228 0v-8.527h.709l-.003 23.139c0 .882.71 1.6 1.584 1.6.877 0 1.586-.717 1.586-1.6l.001-13.422h.705l-.004 13.422c0 .882.709 1.6 1.584 1.6.875 0 1.584-.717 1.584-1.6l.007-23.14h.695v8.527c0 1.715 2.216 1.715 2.211 0v-8.708c0-1.895-1.103-3.753-3.298-3.753zM49.096 42.294h-15.73v3.365h15.73v-3.365zm0-6.73h-15.73v3.364h15.73v-3.364zm-26.153-13.54c-1.56 0-2.827 1.28-2.827 2.856 0 1.576 1.267 2.855 2.827 2.855s2.828-1.28 2.828-2.855c0-1.576-1.267-2.855-2.828-2.855zM58.388 22c-1.56 0-2.826 1.279-2.826 2.854 0 1.575 1.266 2.853 2.826 2.853s2.826-1.278 2.826-2.853c0-1.575-1.267-2.854-2.826-2.854z" fill="currentColor" fill-rule="evenodd"/></symbol><symbol id="eip-youth" viewBox="0 0 80 80"><path d="M40 0c22.077 0 40 17.924 40 40 0 22.077-17.923 40-40 40S0 62.077 0 40C0 17.924 17.923 0 40 0zm.055 47.48c-4.165 0-7.507 3.386-7.507 7.48v2.348C34.3 58.399 37.096 59 40.055 59c2.959 0 5.753-.655 7.507-1.692V54.96c0-4.094-3.343-7.48-7.507-7.48zm16.438-6.005c-4.164 0-7.507 3.385-7.507 7.48v2.347c1.754 1.092 4.548 1.693 7.507 1.693 2.96 0 5.754-.655 7.507-1.693v-2.347c0-4.15-3.397-7.48-7.507-7.48zm-32.986 0c-4.165 0-7.507 3.385-7.507 7.48v2.347c1.753 1.092 4.548 1.693 7.507 1.693 2.959 0 5.753-.655 7.507-1.693v-2.347c.054-4.15-3.343-7.48-7.507-7.48zm13.589 5.132a5.73 5.73 0 0 1-2.85-4.968c0-2.893 2.192-5.35 5.042-5.732v-.219c0-4.149-3.398-7.479-7.507-7.479a7.336 7.336 0 0 0-5.425 2.348 5.766 5.766 0 0 1 3.014 5.077c0 2.129-1.15 3.93-2.85 4.968 3.398 1.201 5.918 4.477 5.918 8.353v1.42c0-.055.055-.055.055-.11 1.041-1.638 2.685-2.948 4.603-3.658zm16.438-6.005a5.73 5.73 0 0 1-2.85-4.968 5.766 5.766 0 0 1 3.015-5.077c-1.37-1.42-3.288-2.348-5.425-2.348-4.164 0-7.507 3.385-7.507 7.48v.163c2.85.328 5.096 2.784 5.096 5.733 0 2.129-1.15 3.93-2.85 4.968a8.617 8.617 0 0 1 4.549 3.657V48.9c0-3.821 2.52-7.097 5.972-8.298zm-13.48-3.385c-2.449 0-4.438 1.982-4.438 4.422 0 2.44 1.99 4.422 4.439 4.422 2.45 0 4.438-1.981 4.438-4.422 0-2.44-1.989-4.422-4.438-4.422zm16.44-6.005c-2.45 0-4.44 1.981-4.44 4.422 0 2.44 1.99 4.422 4.44 4.422 2.449 0 4.438-1.982 4.438-4.422 0-2.44-1.99-4.422-4.439-4.422zm-32.987 0c-2.45 0-4.439 1.981-4.439 4.422 0 2.44 1.99 4.422 4.439 4.422 2.45 0 4.438-1.982 4.438-4.422 0-2.44-1.989-4.422-4.438-4.422zM31.726 18c-2.45 0-4.438 1.981-4.438 4.422 0 2.44 1.988 4.422 4.438 4.422 2.45 0 4.438-1.981 4.438-4.422 0-2.44-1.988-4.422-4.438-4.422zm16.548 0c-2.45 0-4.438 1.981-4.438 4.422 0 2.44 1.988 4.422 4.438 4.422 2.45 0 4.438-1.981 4.438-4.422 0-2.44-1.988-4.422-4.438-4.422z" fill="currentColor" fill-rule="evenodd"/></symbol><symbol id="info" viewBox="0 0 16 16"><path d="M8 0a8 8 0 1 0 0 16A8 8 0 0 0 8 0zm0 3.833a.834.834 0 1 1-.001 1.669.834.834 0 0 1 0-1.669zM9.332 12H6.667v-.667c.322-.119.666-.134.666-.49V7.865c0-.356-.344-.412-.666-.531v-.667h2v4.177c0 .357.344.372.666.49V12z" fill="currentColor"/></symbol><symbol id="print" viewBox="0 0 16 16"><path d="M16 7.818V16H0V7.818h2.667V1h6.885c1.025 0 3.781 3.308 3.781 4.112v2.706H16zm-4-2.315c0-.913-1.52-1.019-2.167-.838.302-.555.204-2.301-.721-2.301H4v8.863h8V5.503zm-1.333 3.679H5.333V8.5h5.334v.682zm0-2.046H5.333v.682h5.334v-.682zm0-1.363H5.333v.682h5.334v-.682z" fill="currentColor"/></symbol><symbol id="success" viewBox="0 0 16 16"><path d="M8 16A8 8 0 1 1 8 0a8 8 0 0 1 0 16zM4.352 9.011l2.531 2.649 5.029-5.28a.822.822 0 0 0 0-1.12.724.724 0 0 0-1.062 0L6.883 9.441l-1.47-1.548a.724.724 0 0 0-1.061 0 .822.822 0 0 0 0 1.118z" fill="currentColor"/></symbol><symbol id="warning" viewBox="0 0 16 16"><path d="M8 0a8 8 0 1 0 0 16A8 8 0 0 0 8 0zm-.74 3h1.5v6.7h-1.5V3zM8 13a1 1 0 1 1 0-2 1 1 0 0 1 0 2z" fill="currentColor"/></symbol></svg>