<svg viewBox="0 0 80 80" xmlns="http://www.w3.org/2000/svg"><g fill="none" fill-rule="evenodd"><path d="M40 0c22.077 0 40 17.923 40 40S62.077 80 40 80C17.924 80 0 62.077 0 40S17.924 0 40 0z" fill="currentColor"/><path d="M56.268 55.113c2.958 0 5.345 1.637 5.345 3.682V59H50.871v-.205c0-2.045 2.335-3.682 5.293-3.682h.104zm-15.671 0c2.906 0 5.293 1.637 5.345 3.682V59H35.2v-.205c0-2.045 2.335-3.682 5.293-3.682h.104zm-19.563-13.45c.415 0 .778.05 1.141.102.104 0 .26.05.363.05l8.251 1.637 4.048-3.426c.467-.41 1.141-.512 1.712-.307l6.02-7.774a.59.59 0 0 1 .83-.103.57.57 0 0 1 .104.819l-6.072 7.723c.52.716.364 1.687-.415 2.301l-4.67 3.99a1.83 1.83 0 0 1-1.142.408c-.155 0-.26-.05-.363-.05l-4.93-.972v12.888H16V45.805c0-2.302 2.231-4.143 4.93-4.143h.104zm35.182 4.295c2.32 0 4.203 1.857 4.203 4.143 0 2.286-1.883 4.143-4.203 4.143-2.32 0-4.203-1.857-4.203-4.143 0-2.286 1.883-4.143 4.203-4.143zm-15.671 0c2.32 0 4.203 1.857 4.203 4.143 0 2.286-1.883 4.143-4.203 4.143-2.32 0-4.203-1.857-4.203-4.143 0-2.286 1.883-4.143 4.203-4.143zM63.118 21c.519 0 .882.41.882.87v21.48c0 .46-.415.87-.882.87H39.04c-.467 0-.882-.41-.882-.87s.415-.87.882-.87h23.196V22.74H29.959v18.105c0 .46-.415.87-.882.87s-.882-.41-.882-.87V21.869c0-.46.415-.869.882-.869h34.04zM21.034 31.229c2.606 0 4.722 2.085 4.722 4.654s-2.116 4.654-4.722 4.654c-2.607 0-4.723-2.085-4.723-4.654s2.116-4.654 4.723-4.654zm36.947 7.058c.518 0 .882.358.934.87 0 .46-.416.869-.883.869H44.644c-.467 0-.882-.41-.882-.87s.415-.87.882-.87h13.337zm0-6.547c.518 0 .882.358.934.87 0 .46-.416.87-.883.87H47.187c-.467 0-.882-.41-.882-.87s.415-.87.882-.87h10.794zm0-6.188c.518 0 .882.409.882.87 0 .46-.415.869-.882.869H36.705c-.467 0-.882-.41-.882-.87s.415-.87.882-.87H57.98z" fill="#FFF"/></g></svg>