<svg viewBox="0 0 80 80" xmlns="http://www.w3.org/2000/svg"><path d="M40 0c22.076 0 40 17.923 40 40 0 22.076-17.924 40-40 40S0 62.075 0 40C0 17.923 17.924 0 40 0zm4.812 45.882c0-1.381-.814-2.73-2.436-2.73h-4.752c-1.622 0-2.436 1.349-2.436 2.73v6.329c-.005 1.247 1.633 1.247 1.633 0v-6.2h.516l.005 16.829c0 .642.52 1.16 1.166 1.16.645 0 1.172-.518 1.172-1.16l-.005-9.76h.65l-.005 9.76c0 .642.526 1.16 1.172 1.16.645 0 1.171-.518 1.171-1.16l.006-16.828h.51v6.199c0 1.247 1.638 1.247 1.633 0v-6.329zm2.308-2.123h.523l-.001 16.828c0 .642.524 1.163 1.17 1.163.646 0 1.17-.521 1.17-1.163v-9.76h.521l-.003 9.76c0 .642.524 1.163 1.17 1.163.645 0 1.169-.521 1.169-1.163l.005-16.828h.513v6.202c0 1.247 1.637 1.247 1.633 0v-6.335c0-1.378-.814-2.729-2.435-2.729l-4.677-.002c-1.478 0-2.403 1.199-2.403 2.693v6.372c0 1.239 1.645 1.239 1.645 0v-6.2zm-14.763 0h.523v6.201c0 1.239 1.645 1.239 1.645 0v-6.372c0-1.495-.925-2.693-2.403-2.693l-4.677.002c-1.621 0-2.435 1.35-2.435 2.73v6.333c-.004 1.247 1.633 1.247 1.633 0V43.76h.513l.005 16.827c0 .642.524 1.164 1.17 1.164.645 0 1.169-.522 1.169-1.164l-.003-9.76h.52l.001 9.76c0 .642.524 1.164 1.17 1.164.646 0 1.17-.522 1.17-1.164l-.001-16.827zm24.295 6.374c0 .642.525 1.163 1.17 1.163.646 0 1.17-.521 1.17-1.163v-9.76h.522l-.004 9.76c0 .642.524 1.163 1.17 1.163.646 0 1.169-.521 1.169-1.163l.005-16.828h.513v6.202c0 1.247 1.637 1.247 1.633 0v-6.334c0-1.379-.814-2.73-2.435-2.73l-4.677-.002c-1.478 0-2.403 1.199-2.403 2.693v6.372c0 1.239 1.645 1.239 1.645 0v-6.2h.524l-.002 16.827zm-39.02-16.828h.513l.006 16.827c0 .642.523 1.164 1.169 1.164s1.17-.522 1.17-1.164l-.004-9.76h.521l.001 9.76c0 .642.524 1.164 1.17 1.164.645 0 1.17-.522 1.17-1.164l-.002-16.827h.524v6.201c0 1.239 1.645 1.239 1.645 0v-6.372c0-1.495-.925-2.693-2.403-2.693l-4.677.002c-1.621 0-2.435 1.351-2.435 2.73v6.333c-.004 1.247 1.633 1.247 1.633 0v-6.201zm24.386 7.338A2.074 2.074 0 0 0 40 38.577a2.099 2.099 0 0 0-1.427.626c-.364.372-.591.88-.591 1.44 0 1.122.9 2.029 2.018 2.067a2.074 2.074 0 0 0 2.018-2.067zm8.091-4.33c-1.152 0-2.087.93-2.087 2.076s.935 2.076 2.087 2.076c1.152 0 2.087-.93 2.087-2.076a2.082 2.082 0 0 0-2.087-2.075zm-20.218 0c-1.151 0-2.086.93-2.086 2.076s.935 2.076 2.086 2.076c1.152 0 2.087-.93 2.087-2.076a2.082 2.082 0 0 0-2.087-2.075zM44.811 21.3c0-1.376-.813-2.725-2.436-2.725l-2.376-.005-2.371.005c-1.622 0-2.436 1.35-2.436 2.725v6.335c-.005 1.246 1.634 1.246 1.634 0v-6.2h.509l.005 15.987c.76.043 1.541.07 2.34.076v-8.995h.64v8.995c.797-.006 1.578-.033 2.338-.076l.005-15.987h.516v6.2c0 1.246 1.633 1.246 1.633 0V21.3zm2.365 1.731h.524l-.002 13.547a20.95 20.95 0 0 0 2.34-.627v-5.853h.521l-.001 5.665c1.028-.391 1.827-.842 2.339-1.333l.004-11.4h.512v6.202c0 1.247 1.637 1.247 1.633 0v-6.334c0-1.378-.814-2.728-2.435-2.728l-4.677-.002c-1.478 0-2.403 1.198-2.403 2.693v6.372c0 1.238 1.645 1.238 1.645 0V23.03zm-20.589 0h.513l.004 11.398c.511.491 1.31.942 2.339 1.333l-.002-5.664h.521v5.852a20.95 20.95 0 0 0 2.34.627l-.001-13.546h.523v6.202c0 1.238 1.646 1.238 1.646 0V22.86c0-1.495-.926-2.693-2.404-2.693l-4.676.002c-1.622 0-2.436 1.35-2.436 2.728v6.334c-.004 1.247 1.633 1.247 1.633 0v-6.201zM59.12 25.86c-1.152 0-2.087.93-2.087 2.076 0 1.145.935 2.075 2.087 2.075 1.152 0 2.087-.93 2.087-2.075a2.082 2.082 0 0 0-2.087-2.076zm-38.238 0c-1.152 0-2.087.93-2.087 2.076 0 1.145.935 2.075 2.087 2.075 1.152 0 2.087-.93 2.087-2.075a2.082 2.082 0 0 0-2.087-2.076zm8.955-10.274c-1.152 0-2.087.93-2.087 2.075 0 1.146.935 2.076 2.087 2.076 1.151 0 2.086-.93 2.086-2.076a2.082 2.082 0 0 0-2.086-2.075zm20.329 0c-1.152 0-2.087.93-2.087 2.075 0 1.146.935 2.076 2.087 2.076 1.151 0 2.086-.93 2.086-2.076a2.082 2.082 0 0 0-2.086-2.075zm-8.153.48A2.073 2.073 0 0 0 40 14a2.073 2.073 0 0 0-2.013 2.066c0 1.123.895 2.03 2.013 2.067a2.073 2.073 0 0 0 2.012-2.067z" fill="currentColor" fill-rule="evenodd"/></svg>