<svg viewBox="0 0 80 80" xmlns="http://www.w3.org/2000/svg"><path d="M40 0c22.077 0 40 17.923 40 40 0 22.076-17.923 40-40 40C17.924 80 0 62.076 0 40 0 17.923 17.924 0 40 0zm-9.277 53.95L27.04 34.007l.039-2.417 2.79 8.953 1.391-.51-2.314-10.84c-.527-2.151-.684-2.746-2.755-3.023l-.012.009c-.01-.002-.017-.01-.027-.01-.414-.046-2.254-.099-2.254-.099l-.023.001a.68.68 0 0 1-.033 0s-1.85.052-2.264.098c-.01 0-.017.008-.027.01l-.011-.01c-2.072.278-2.228.873-2.755 3.023l-2.315 10.84 1.392.511 2.79-8.953.039 2.417-3.684 19.943h4.204l.848 7.079h1.248v-7.08h1.116v7.08h1.248l.848-7.08h4.204zm28.25 7.079l1.136-18.907-.662-6.266.519-4.66 1.767 9.794 1.797-.058-1.322-11.916c-.855-3.426-2.482-4.242-6.104-4.289-3.861-.05-4.968 1.059-5.808 4.406L48.74 40.948l2.217.001 1.395-9.634.271 4.541-.583 6.26 1.448 18.909h2.311V45.132h.67l.004 15.897h2.5zM35.295 41.533h8.067v-2.69h-8.067v2.69zm0-4.706h8.067v-2.69h-8.067v2.69zm-11.43-11.429a2.689 2.689 0 1 1 .001-5.377 2.689 2.689 0 0 1 0 5.377zm32.243-1.588c-1.357 0-2.661-.956-2.661-2.782 0-1.877 1.386-2.858 2.689-2.858 1.36 0 2.689.98 2.689 2.858 0 1.879-1.357 2.782-2.717 2.782z" fill-rule="evenodd"/></svg>