<svg viewBox="0 0 80 80" xmlns="http://www.w3.org/2000/svg"><path d="M40 0c22.076 0 40 17.923 40 40 0 22.076-17.924 40-40 40S0 62.075 0 40C0 17.923 17.924 0 40 0zm-2.697 63.656l-2.15-11.635.022-1.41 1.629 5.223.812-.297-1.35-6.325c-.309-1.254-.4-1.602-1.609-1.763l-.007.005c-.006 0-.01-.005-.015-.006-.242-.026-1.316-.057-1.316-.057h-.034s-1.08.03-1.321.057l-.015.006-.008-.005c-1.209.161-1.3.51-1.608 1.763l-1.351 6.325.813.297 1.628-5.222.023 1.41-2.151 11.634h2.455l.495 4.13h.729v-4.13h.651v4.13h.729l.495-4.13h2.454zm5.188-7.538h1.283l.809-5.597.156 2.638-.337 3.637.837 10.987h1.339v-9.234h.388l.002 9.236h1.448l.657-10.985-.383-3.64.3-2.708 1.023 5.69 1.04-.034-.765-6.923c-.495-1.99-1.436-2.464-3.533-2.491-2.236-.03-2.876.614-3.362 2.559l-.902 6.865zM28.524 46.41l-2.151-11.634.023-1.41 1.628 5.223.813-.298-1.35-6.324c-.309-1.254-.4-1.601-1.61-1.763l-.007.005c-.005 0-.01-.005-.014-.005-.242-.028-1.317-.058-1.317-.058h-.033s-1.08.03-1.321.058c-.006 0-.011.004-.016.005l-.007-.005c-1.209.162-1.3.51-1.608 1.763l-1.351 6.324.812.298 1.63-5.223.021 1.41-2.15 11.634h2.454l.495 4.13h.729v-4.13h.652v4.13h.729l.494-4.13h2.455zm30.96-.586l-2.15-11.634.022-1.41 1.63 5.223.811-.298-1.35-6.324c-.308-1.255-.4-1.602-1.609-1.764l-.007.005c-.006 0-.01-.005-.016-.005-.241-.027-1.315-.058-1.315-.058h-.034s-1.08.03-1.321.058c-.005 0-.01.004-.015.005l-.008-.005c-1.209.162-1.3.51-1.608 1.764l-1.351 6.324.813.298 1.628-5.223.023 1.41-2.15 11.634h2.454l.494 4.129h.73v-4.13h.65v4.13h.73l.494-4.13h2.455zm-26.149 1.034c.833 0 1.507-.71 1.507-1.587s-.674-1.588-1.507-1.588c-.831 0-1.505.711-1.505 1.588 0 .876.674 1.587 1.505 1.587zm13.381-.748c.798 0 1.593-.639 1.593-1.686 0-1.046-.795-1.685-1.593-1.685-.763 0-1.56.64-1.56 1.685 0 1.017.764 1.686 1.56 1.686zM29.507 25.605h1.284l.808-5.597.157 2.638-.338 3.637.838 10.987h1.338v-9.234h.387l.003 9.236h1.448l.657-10.985-.382-3.641.299-2.707 1.024 5.69 1.04-.034-.765-6.923c-.495-1.99-1.437-2.465-3.534-2.492-2.236-.03-2.876.615-3.363 2.56l-.9 6.865zm12.132-.01h1.283l.808-5.598.157 2.638-.337 3.638.837 10.986h1.338v-9.234h.388l.002 9.236h1.448l.657-10.984-.383-3.642.3-2.706 1.024 5.69 1.04-.034-.766-6.923c-.495-1.99-1.436-2.465-3.533-2.492-2.235-.03-2.876.615-3.362 2.56l-.901 6.864zM24.556 29.61c.832 0 1.507-.71 1.507-1.588 0-.876-.675-1.587-1.507-1.587-.831 0-1.505.711-1.505 1.587 0 .877.674 1.588 1.505 1.588zm30.96-.586c.833 0 1.507-.71 1.507-1.588 0-.877-.674-1.587-1.507-1.587-.831 0-1.505.71-1.505 1.587s.674 1.588 1.505 1.588zm-21.783-13.43c.797 0 1.592-.639 1.592-1.686 0-1.045-.795-1.685-1.592-1.685-.764 0-1.56.64-1.56 1.685 0 1.018.763 1.686 1.56 1.686zm12.13-.01c.798 0 1.594-.638 1.594-1.686 0-1.046-.796-1.685-1.594-1.685-.763 0-1.56.64-1.56 1.685 0 1.018.764 1.686 1.56 1.686z" fill="#000" fill-rule="evenodd"/></svg>