<svg viewBox="0 0 80 80" xmlns="http://www.w3.org/2000/svg"><path d="M39.116 53.594c0-.71.377-1.238.714-1.238.336 0 .714.527.714 1.238v2.217c0 .708-.378 1.238-.714 1.238-.337 0-.714-.53-.714-1.238v-2.217zm-18.202-40.66c1.57-.078 2.834-.826 3.064-1.74h9.745c.241.207.552.334.893.334h3.985l-.02 6.082c-.205.024-.358.057-.358.105 0 .644-.177 1.251-1.429 2.753v27.38s1.252.834 1.252 2.085h.798v1.146c-.762.445-1.282 1.39-1.282 2.515v2.217c0 1.147.538 2.108 1.325 2.542-.37 2.033-1.893 6.728-4.169 11.99h1.057c1.78-4.165 3.165-8.14 3.796-10.621.622 2.46 1.989 6.395 3.797 10.62h1.058c-2.202-5.099-3.7-9.674-4.127-11.795 1.039-.261 1.798-1.369 1.798-2.736v-2.217c0-1.142-.531-2.096-1.31-2.533v-1.128h.753c0-1.251 1.25-2.085 1.25-2.085v-27.38c-1.25-1.502-1.428-2.109-1.428-2.753 0-.045-.14-.078-.331-.102l-.02-6.085h3.81c.341 0 .65-.127.891-.334h9.922c.231.914 1.496 1.662 3.064 1.74 1.77.092 3.247-.701 3.301-1.77.054-1.068-1.335-2.006-3.104-2.096-.144-.007-.282 0-.421.006V9.06H45.687a1.376 1.376 0 0 0-.867-.312H34.616c-.33 0-.63.12-.868.312h-12.61v.015c-.139-.006-.277-.013-.42-.006-1.77.09-3.16 1.028-3.105 2.096.054 1.069 1.532 1.862 3.3 1.77z" fill="currentColor" fill-rule="evenodd"/></svg>