<svg viewBox="0 0 80 80" xmlns="http://www.w3.org/2000/svg"><path d="M40 0c22.077 0 40 17.923 40 40 0 22.076-17.923 40-40 40S0 62.076 0 40C0 17.923 17.923 0 40 0zm8.114 55.93l-5.083-23.85.005-.076 1.38-6.455 11.746 5.015.798-1.825-13.212-6.819c-1.298-.584-2.532-.886-4.906-.932l-.013-.003-.036.002-.037-.002-.013.003c-2.374.046-3.66.348-4.957.932l-13.211 6.82.797 1.824 11.746-5.015 1.385 6.455-5.032 23.926h5.714l1.152 11.973h1.697V55.93h1.517v11.973h1.697L42.4 55.93h5.714zM21.013 39.344c-.997 0-1.805-.694-1.805-2.08 0-1.332.676-2.08 1.65-2.08.597 0 1.151.242 1.571.561l.31-1.97c-.542-.264-1.24-.429-2.08-.429-2.192 0-3.709 1.573-3.709 3.928 0 2.389 1.406 3.907 3.786 3.907.83 0 1.472-.176 2.114-.484l-.288-1.782c-.553.274-1.029.429-1.55.429zm33.196 0c-.996 0-1.804-.694-1.804-2.08 0-1.332.675-2.08 1.65-2.08.597 0 1.15.242 1.57.561l.31-1.97c-.541-.264-1.239-.429-2.08-.429-2.191 0-3.708 1.573-3.708 3.928 0 2.389 1.406 3.907 3.785 3.907.83 0 1.472-.176 2.114-.484l-.287-1.782c-.553.274-1.029.429-1.55.429zm-15.507 1.788c-2.225 0-3.697-1.585-3.697-3.929 0-2.354 1.472-3.95 3.72-3.95 2.235 0 3.696 1.584 3.696 3.928 0 2.345-1.472 3.951-3.72 3.951zm24.571-5.915v-1.75h-5.036v7.593h5.135v-1.75H60.45v-1.243h2.424l-.287-1.816H60.45v-1.034h2.823zm-31.58 5.843v-7.593h-2.27v2.707h-2.115v-2.707H25.04v7.593h2.27v-2.938h2.114v2.938h2.27zm13.965 0h2.27v-7.593h-2.27v7.593zm-6.945-6.031c-.93 0-1.45.87-1.45 2.234 0 1.364.52 2.234 1.45 2.234.93 0 1.45-.87 1.45-2.234 0-1.365-.52-2.234-1.45-2.234zm.378-15.843c1.939 0 3.508-1.636 3.508-3.654s-1.57-3.654-3.508-3.654c-1.936 0-3.505 1.636-3.505 3.654s1.57 3.654 3.505 3.654z" fill="#000" fill-rule="evenodd"/></svg>