<svg viewBox="0 0 80 80" xmlns="http://www.w3.org/2000/svg"><path d="M12.894 72.981H9.06L7.318 44.045l1.015-9.593-.795-7.13-4.346 15.52L0 42.223l4.1-18.237c1.31-5.244 3.805-6.493 9.359-6.565 5.92-.077 7.616 1.62 8.905 6.742l3.798 15.034L31.509 23.5c1.418-4.435 1.596-4.857 6.207-4.879 9.088-.041 9.134 0 10.64 4.879l4.173 13.554L57.146 23.5c1.419-4.435 1.597-4.857 6.207-4.879 9.09-.041 9.134 0 10.641 4.879L80 42.96h-2.18l-7.196-16.443-1.153 5.056 3.54 17.637H71.36L68.496 73h-1.951V49.318h-2.216V73h-2.04l-2.571-23.829H58.32l3.349-17.598-1.418-5.056-6.99 16.444h-1.416l-6.858-16.444-1.153 5.056 3.54 17.637h-1.652L42.858 73h-1.95V49.318H38.69V73h-2.04l-2.57-23.829h-1.398l3.35-17.598-1.42-5.056-7.02 16.44h-4.02L19.21 27.504l-.415 6.95.894 9.58-2.219 28.942h-3.544V48.651h-1.027l-.005 24.33zm27.107-55.847c-2.109 0-4.218-1.66-4.218-4.377 0-2.715 2.11-4.375 4.218-4.375 2.025 0 4.134 1.66 4.134 4.375 0 2.643-2.026 4.377-4.134 4.377zm25.638 0c-2.11 0-4.218-1.66-4.218-4.377 0-2.715 2.109-4.375 4.218-4.375 2.024 0 4.133 1.66 4.133 4.375 0 2.643-2.025 4.377-4.133 4.377zM13.56 15.88c-2.111 0-4.218-1.683-4.218-4.44C9.342 8.685 11.449 7 13.56 7c2.022 0 4.133 1.685 4.133 4.44 0 2.681-2.025 4.44-4.133 4.44z" fill="currentColor" fill-rule="evenodd"/></svg>