<svg xmlns="http://www.w3.org/2000/svg" width="80" height="80"><path fill-rule="evenodd" d="M33.637 64.03A6.53 6.53 0 0 1 40 58.952c3.6 0 6.524 2.923 6.524 6.524 0 3.6-2.923 6.524-6.524 6.524a6.527 6.527 0 0 1-6.375-7.917l.012-.053zM17.674 48.83a22.81 22.81 0 0 0 1.437 3.097c2.676 4.784 7.083 8.483 12.184 10.511a9.572 9.572 0 0 0-.609 2.915c-7.217-2.755-13.216-8.725-15.88-16.041a8.74 8.74 0 0 0 2.868-.482zm44.702-.117a9.949 9.949 0 0 0 2.81.583 25.685 25.685 0 0 1-1.89 4.163c-3.06 5.396-8.115 9.55-13.945 11.77a8.582 8.582 0 0 0-.477-2.764c6.082-2.5 11.126-7.566 13.502-13.752zm-20.951-7.094v14.605a8.78 8.78 0 0 0-1.666-.118c-.403.012-.798.05-1.184.115V41.618H23.701a9.05 9.05 0 0 0 .112-2.85h14.762V23.69a9.403 9.403 0 0 0 2.85.071v15.007h14.849a8.89 8.89 0 0 0-.021 2.85H41.425zm-26.901-8.142c3.6 0 6.524 2.923 6.524 6.524 0 3.6-2.923 6.524-6.524 6.524A6.527 6.527 0 0 1 8 40c0-3.6 2.923-6.524 6.524-6.524zm50.952 0c3.6 0 6.524 2.923 6.524 6.524 0 3.6-2.923 6.524-6.524 6.524A6.527 6.527 0 0 1 58.952 40c0-3.6 2.923-6.524 6.524-6.524zm-16.172-18.2c6.418 2.46 11.936 7.327 14.89 13.551.282.595.54 1.2.775 1.814a8.767 8.767 0 0 0-2.962.7C59.784 25.899 55.65 21.192 50.1 18.6a23.171 23.171 0 0 0-1.475-.628 9.762 9.762 0 0 0 .679-2.694zm-18.619-.079a8.35 8.35 0 0 0 .642 2.88C25.74 20.313 20.967 24.6 18.38 30.048c-.192.405-.372.815-.54 1.23a9.141 9.141 0 0 0-2.688-.628c1.802-4.674 4.861-8.879 8.967-11.912a26.627 26.627 0 0 1 6.565-3.542zm15.554 1.238A6.53 6.53 0 0 1 40 21.048a6.527 6.527 0 0 1-6.524-6.524C33.476 10.924 36.4 8 40 8a6.527 6.527 0 0 1 6.24 8.433l-.001.002z"/></svg>