<svg viewBox="0 0 80 80" xmlns="http://www.w3.org/2000/svg"><path d="M40 0c22.077 0 40 17.923 40 40S62.077 80 40 80C17.924 80 0 62.077 0 40S17.924 0 40 0zm4.08 16.228h-8.303c-.27 0-.513.098-.706.254H24.809v.012c-.113-.005-.226-.01-.343-.005-1.44.074-2.57.837-2.526 1.706.044.87 1.247 1.515 2.686 1.44 1.278-.063 2.307-.672 2.494-1.416h7.93c.196.169.448.272.727.272h3.242l-.015 4.95c-.168.019-.292.046-.292.085 0 .524-.144 1.018-1.162 2.24v22.281s1.018.679 1.018 1.697h.649v.932c-.62.363-1.043 1.131-1.043 2.047v1.804c0 .934.438 1.716 1.078 2.07-.3 1.653-1.54 5.474-3.392 9.756h.86c1.448-3.389 2.575-6.624 3.088-8.643.507 2.002 1.62 5.204 3.09 8.643h.862c-1.792-4.15-3.011-7.873-3.359-9.6.846-.212 1.463-1.113 1.463-2.226v-1.804c0-.93-.432-1.705-1.066-2.061v-.918h.614c0-1.018 1.017-1.697 1.017-1.697v-22.28c-1.017-1.223-1.162-1.717-1.162-2.241 0-.037-.114-.064-.27-.083l-.016-4.952h3.1c.277 0 .529-.103.725-.272h8.075c.187.744 1.217 1.353 2.493 1.417 1.44.074 2.642-.571 2.686-1.441.045-.869-1.087-1.632-2.526-1.706-.117-.006-.23 0-.343.005v-.012H44.786a1.121 1.121 0 0 0-.705-.254zm-4.64 36.495c0-.578.305-1.007.58-1.007.273 0 .58.429.58 1.007v1.804c0 .576-.307 1.008-.58 1.008-.275 0-.58-.432-.58-1.008v-1.804z" fill-rule="evenodd"/></svg>