<svg viewBox="0 0 80 80" xmlns="http://www.w3.org/2000/svg"><path d="M24.09 74.055l3.095-16.749-.032-2.03-2.344 7.52-1.17-.43 1.944-9.104c.444-1.805.575-2.306 2.315-2.538l.011.007c.008 0 .015-.007.022-.008.348-.039 1.903-.082 1.903-.082h.048s1.546.043 1.894.082c.008.001.014.008.022.008l.01-.007c1.741.232 1.873.733 2.316 2.538l1.945 9.105-1.17.429-2.345-7.52-.033 2.03 3.097 16.75h-3.534L31.372 80h-1.05v-5.945h-.937V80h-1.05l-.712-5.945H24.09zm18.996-10.851h1.848l1.163-8.057.225 3.798-.484 5.236 1.205 15.816h1.927V66.703h.558L49.531 80h2.085l.945-15.814-.55-5.241.431-3.898 1.473 8.191 1.497-.048-1.102-9.966c-.712-2.866-2.067-3.548-5.086-3.588-3.218-.042-4.14.885-4.84 3.685l-1.298 9.883zM11.451 49.228l3.096-16.749-.032-2.03-2.345 7.52-1.17-.43 1.945-9.104c.443-1.805.575-2.305 2.315-2.538l.01.007c.008 0 .015-.007.023-.007.347-.04 1.902-.084 1.902-.084h.048s1.546.044 1.895.084c.007 0 .013.006.022.007l.01-.007c1.74.233 1.872.733 2.316 2.538l1.944 9.104-1.17.43-2.344-7.52-.033 2.03 3.096 16.749h-3.533l-.713 5.945h-1.049v-5.945h-.938v5.945h-1.05l-.711-5.945H11.45zm44.57-.845l3.096-16.748-.033-2.03-2.344 7.519-1.17-.43 1.945-9.103c.443-1.806.575-2.306 2.315-2.538l.011.006c.008 0 .014-.006.022-.007.348-.039 1.902-.083 1.902-.083h.048s1.547.044 1.894.083c.009 0 .014.007.023.007l.01-.006c1.74.232 1.873.732 2.315 2.538L68 36.695l-1.17.429-2.344-7.52-.033 2.03 3.097 16.749h-3.535l-.711 5.945h-1.05v-5.945h-.937v5.945h-1.05l-.712-5.945h-3.534zm-26.115 1.49c1.198 0 2.169-1.024 2.169-2.287 0-1.262-.97-2.285-2.17-2.285-1.196 0-2.167 1.023-2.167 2.285 0 1.263.97 2.286 2.168 2.286zm19.263-1.078c1.147 0 2.293-.92 2.293-2.427 0-1.506-1.146-2.426-2.293-2.426-1.1 0-2.246.92-2.246 2.426 0 1.465 1.1 2.427 2.246 2.427zM24.395 19.277l1.848.001 1.163-8.058.225 3.797-.485 5.236 1.206 15.817h1.926V22.777h.558l.003 13.296h2.085l.946-15.813-.551-5.243.431-3.896 1.474 8.19 1.497-.048-1.102-9.967c-.712-2.865-2.068-3.547-5.086-3.586-3.219-.043-4.14.885-4.84 3.685l-1.298 9.882zm17.464-.015l1.848.001 1.163-8.058.225 3.798-.485 5.236 1.206 15.816h1.926V22.762h.559l.003 13.296h2.083l.947-15.813-.551-5.242.432-3.897 1.473 8.191 1.497-.049-1.102-9.966c-.712-2.866-2.068-3.548-5.086-3.587-3.218-.042-4.14.885-4.84 3.685l-1.298 9.882zm-24.592 5.783c1.199 0 2.17-1.023 2.17-2.286 0-1.262-.971-2.286-2.17-2.286-1.197 0-2.167 1.024-2.167 2.286 0 1.263.97 2.286 2.167 2.286zm44.57-.845c1.2 0 2.17-1.023 2.17-2.285 0-1.262-.97-2.285-2.17-2.285-1.196 0-2.167 1.023-2.167 2.285 0 1.262.97 2.285 2.167 2.285zM30.477 4.868c1.148 0 2.293-.92 2.293-2.427 0-1.505-1.145-2.427-2.293-2.427-1.099 0-2.246.922-2.246 2.427 0 1.465 1.1 2.427 2.246 2.427zm17.464-.015c1.148 0 2.293-.92 2.293-2.427C50.234.921 49.09 0 47.941 0c-1.1 0-2.245.92-2.245 2.426 0 1.465 1.1 2.427 2.245 2.427z" fill="currentColor" fill-rule="evenodd"/></svg>