<svg xmlns="http://www.w3.org/2000/svg" viewBox="0 0 80 80"><g fill="#000" fill-rule="evenodd"><path d="M39.763 14.163c2.43 0 4.398-2.051 4.398-4.582C44.16 7.051 42.194 5 39.763 5c-2.428 0-4.396 2.05-4.396 4.581 0 2.53 1.968 4.582 4.396 4.582m-.488 26.74c-2.79 0-4.636-1.987-4.636-4.926 0-2.953 1.846-4.954 4.664-4.954 2.803 0 4.635 1.986 4.635 4.925 0 2.94-1.846 4.955-4.663 4.955m.175-25.26l-.015-.003-.046.002-.047-.002-.015.004c-2.978.057-4.589.436-6.216 1.169l-16.566 8.55 1 2.288 14.728-6.288 1.737 8.094-6.31 30.002h7.165l1.445 15.013h2.127V59.459h1.903v15.013h2.127l1.444-15.013h7.166l-6.374-29.906.007-.096 1.73-8.094 14.728 6.288 1-2.288-16.565-8.55c-1.628-.733-3.176-1.112-6.153-1.17"/><path d="M39.289 33.161c-1.166 0-1.818 1.09-1.818 2.802 0 1.71.652 2.801 1.818 2.801s1.818-1.09 1.818-2.801c0-1.712-.652-2.802-1.818-2.802m-22.195 5.41c-1.25 0-2.263-.87-2.263-2.608 0-1.67.848-2.608 2.069-2.608.75 0 1.443.303 1.97.704l.39-2.47c-.68-.332-1.555-.539-2.61-.539-2.748 0-4.65 1.973-4.65 4.926 0 2.995 1.763 4.899 4.747 4.899 1.041 0 1.846-.22 2.65-.607l-.36-2.235c-.694.344-1.29.538-1.943.538zm41.626 0c-1.25 0-2.263-.87-2.263-2.608 0-1.67.847-2.608 2.069-2.608.749 0 1.443.303 1.97.704l.388-2.47c-.679-.332-1.554-.539-2.608-.539-2.748 0-4.65 1.973-4.65 4.926 0 2.995 1.763 4.899 4.746 4.899 1.042 0 1.846-.22 2.651-.607l-.36-2.235c-.694.344-1.29.538-1.943.538zm11.365-7.369v2.194h-3.54v1.297h2.68l.36 2.277h-3.04v1.559h3.665v2.194h-6.44v-9.52h6.315zm-45.097 3.395h2.652v-3.395h2.845v9.521H27.64V37.04h-2.652v3.684h-2.845v-9.52h2.845v3.394zm25.855 6.126h-2.846v-9.521h2.846v9.52z"/></g></svg>