<svg viewBox="0 0 80 80" xmlns="http://www.w3.org/2000/svg"><path d="M40 0c22.077 0 40 17.923 40 40S62.077 80 40 80C17.924 80 0 62.077 0 40S17.924 0 40 0zm19.74 27.204a1.462 1.462 0 0 1 1.455 1.469l-.001 24.386c0 .225-.016.451-.037.675-.053.558-.318.807-.873.808-1.822.004-3.644.002-5.466.002H41.796c-.576 0-.926-.263-1-.744-.085-.551.203-.994.758-1.156 2.92-.855 5.9-1.343 8.942-1.27 1.828.044 3.653.24 5.478.385.75.06 1.495.166 2.282.256V28.676c0-.819.655-1.474 1.465-1.472h.018zm-37.987 24.81c.812-.094 1.583-.186 2.354-.273 2.681-.303 5.364-.499 8.065-.277 2.126.174 4.202.588 6.25 1.17.644.183.96.755.738 1.336-.14.37-.417.572-.81.572-6.21.002-12.419.002-18.628 0-.554 0-.82-.25-.87-.81a8.688 8.688 0 0 1-.037-.782c-.002-8.069.003-16.137-.01-24.205-.001-.729.281-1.172 1.048-1.457.578-.215 1.33.035 1.686.586.137.213.205.508.205.766.011 7.64.009 15.28.009 22.922v.452zm33.351-3.379c-4.865-1.11-9.635-1.02-14.314 1.022v-.41c-.001-7.224-.001-14.449-.011-21.673 0-.294.084-.471.33-.635 2.036-1.344 4.277-2.134 6.663-2.556 1.828-.324 3.647-.3 5.446.157.566.143 1.1.411 1.645.632.189.077.265.221.265.447-.006 7.568-.004 15.137-.004 22.706 0 .094-.012.187-.02.31zm-30.22.006v-.448c0-7.486.004-14.971-.006-22.457 0-.323.11-.494.378-.636.98-.52 2.04-.746 3.123-.847 3.618-.338 6.94.597 10.066 2.386.569.326.801.69.798 1.388-.034 7.058-.023 14.116-.025 21.173v.456c-4.67-2.037-9.44-2.134-14.334-1.015z" fill="#000" fill-rule="evenodd"/></svg>