<svg viewBox="0 0 80 80" xmlns="http://www.w3.org/2000/svg"><path d="M40 0c22.077 0 40 17.923 40 40 0 22.076-17.923 40-40 40S0 62.076 0 40C0 17.923 17.923 0 40 0zm1.778 61.06v-7.765L38.222 51.5v9.56c0 1.067.8 1.94 1.778 1.94s1.778-.873 1.778-1.94zM33.74 41.002c1.013-.328 1.593-1.36 1.255-2.344a1.927 1.927 0 0 0-2.413-1.219c-.145.047-.338.14-.483.234-2.413 1.126-3.427 3.891-2.317 6.235a4.838 4.838 0 0 0 2.317 2.25l5.55 2.532 7.722 3.563c.483.235.724.844.483 1.313-.097.187-.29.375-.483.469-1.013.328-1.592 1.36-1.255 2.344a1.927 1.927 0 0 0 2.413 1.218c.145-.046.338-.14.483-.234 2.413-1.125 3.427-3.891 2.317-6.235a4.838 4.838 0 0 0-2.317-2.25l-7.722-3.516-5.55-2.532c-.483-.234-.724-.844-.483-1.312.097-.235.242-.422.483-.516zm-1.026 16.585c.922.346 1.931-.197 2.238-1.234.264-.89-.044-1.828-.746-2.322-.439-.247-.658-.889-.439-1.383.088-.197.264-.395.44-.494l2.237-1.185-4.037-2.124c-2.107 1.383-2.809 4.396-1.58 6.767.395.84 1.097 1.53 1.887 1.975zm10.842-12.584l4.037 2.073c2.107-1.35 2.809-4.29 1.58-6.603a4.757 4.757 0 0 0-1.887-1.928c-.79-.578-1.887-.337-2.414.53-.526.868-.307 2.073.483 2.651.132.096.263.193.439.241.439.241.658.868.439 1.35a1.115 1.115 0 0 1-.44.482l-2.237 1.204zm-26.032-8.782a41.74 41.74 0 0 0 7.402.683c4.47.049 8.94-.83 13.113-2.49v8.153l2.931 1.367.993.488V34.415a34.522 34.522 0 0 0 13.114 2.441 41.74 41.74 0 0 0 7.402-.683 1.898 1.898 0 0 0 1.49-1.465c.149-.78-.249-1.513-.894-1.904-3.279-1.806-6.06-4.345-8.196-7.371a2.442 2.442 0 0 0-1.69-1.074c-.695-.098-1.44.048-1.986.488-2.782 1.953-5.862 3.515-9.14 4.54v-2.93c2.533-1.073 3.725-3.953 2.633-6.443-1.143-2.539-4.074-3.662-6.607-2.636-2.533 1.025-3.726 3.954-2.633 6.444a4.841 4.841 0 0 0 2.633 2.587v2.93a32.827 32.827 0 0 1-9.19-4.541c-.546-.44-1.291-.586-1.987-.488a2.442 2.442 0 0 0-1.688 1.074c-2.136 3.075-4.968 5.565-8.296 7.42a1.791 1.791 0 0 0-.894 1.904 1.891 1.891 0 0 0 1.49 1.514z" fill="currentColor" fill-rule="evenodd"/></svg>