<svg viewBox="0 0 80 80" xmlns="http://www.w3.org/2000/svg"><path d="M40 0c22.077 0 40 17.924 40 40 0 22.077-17.923 40-40 40S0 62.077 0 40C0 17.924 17.923 0 40 0zm26.994 41.95l-3.956-12.819c-.993-3.213-1.023-3.24-7.01-3.213-3.036.014-3.154.292-4.088 3.213l-3.041 8.929-2.749-8.929c-.993-3.213-1.022-3.24-7.01-3.213-3.036.014-3.154.292-4.088 3.213l-3.522 10.34-2.501-9.903c-.85-3.375-1.967-4.492-5.867-4.44-3.657.046-5.301.868-6.164 4.323l-2.7 12.013 2.102.408 2.862-10.223.524 4.697-.668 6.318 1.147 19.061h2.526l.003-16.026h.676V61.72h2.335l1.462-19.065-.59-6.31.274-4.577 2.874 10.18 2.648-.001 4.624-10.83.934 3.332-2.206 11.592h.921l1.694 15.696h1.343v-15.6h1.46v15.6h1.285l1.887-15.671h1.088L43.17 34.45l.76-3.331 4.517 10.831h.933l4.604-10.831.934 3.33-2.206 11.593h.92l1.694 15.696h1.344v-15.6h1.46v15.6h1.285l1.886-15.671h1.088L60.06 34.45l.759-3.331 4.74 10.831h1.436zM40.646 24.938c-1.389 0-2.778-1.093-2.778-2.883 0-1.788 1.39-2.882 2.778-2.882 1.334 0 2.723 1.094 2.723 2.882 0 1.74-1.334 2.883-2.723 2.883zm16.888 0c-1.39 0-2.779-1.093-2.779-2.883 0-1.788 1.39-2.882 2.779-2.882 1.333 0 2.723 1.094 2.723 2.882 0 1.74-1.335 2.883-2.723 2.883zm-34.304-.826c-1.391 0-2.78-1.109-2.78-2.924s1.389-2.925 2.78-2.925c1.332 0 2.721 1.11 2.721 2.925 0 1.766-1.333 2.924-2.721 2.924z" fill="#000" fill-rule="evenodd"/></svg>