<svg viewBox="0 0 80 80" xmlns="http://www.w3.org/2000/svg"><path d="M40 0c22.076 0 40 17.923 40 40 0 22.076-17.924 40-40 40S0 62.075 0 40C0 17.923 17.924 0 40 0zm-1.7 56.144L33.995 36.25l3.07-1.177c.753-.276.811-.665.594-1.376l-1.388-5.026c-.627-2.465-1.24-3.253-3.784-3.505-.568-.056-2.058-.111-2.985-.111-.928 0-2.436.056-2.982.11-2.542.253-3.157 1.04-3.784 3.506l-1.387 5.026c-.216.711-.159 1.1.595 1.376l3.07 1.177-4.304 19.894h5.344l1.078 7.894h1.588v-7.894h1.569v7.894h1.587l1.077-7.894H38.3zm15.222 7.894l1.438-21.085-.84-6.989.658-5.195 2.237 10.92 2.274-.064-1.674-13.29c-1.082-3.82-3.14-4.728-7.727-4.782-4.888-.056-6.288 1.181-7.353 4.914l-1.97 13.176 2.807.001L45.14 30.9l.343 5.064-.74 6.982 1.834 21.087h2.925V46.31h.848l.004 17.73h3.168zM28.33 35.933c-.396-2.316 1.112-3.96 1.473-4.387.235-.274.398-.23.672-1.477.298-1.353 1.714-2.179 3.389-1.626 1.446.478 1.849 1.804 1.483 2.84-.366 1.03-.697 1.082-.945 1.597-.266.558-.24.776-.24.776l-5.832 2.277zm-3.828-2.45l.831-2.876.06 3.3-.891-.424zm9.535-3.08c-.02.07-.108.31-.14.377a1.53 1.53 0 0 1-1.992.752 1.453 1.453 0 0 1-.737-1.95c.04-.082.17-.276.218-.349 1.034-.198 2.2.02 2.65 1.17zm-4.746-6.611c-1.553 0-3.045-1.292-3.045-3.26 0-2.022 1.555-3.258 3.045-3.258 1.556 0 3.11 1.236 3.11 3.259 0 2.023-1.554 3.259-3.11 3.259zm20.547-1.313c-1.553 0-3.046-1.292-3.046-3.26 0-2.022 1.555-3.258 3.046-3.258 1.556 0 3.109 1.236 3.109 3.259 0 2.023-1.553 3.259-3.11 3.259z" fill="#000" fill-rule="evenodd"/></svg>