<svg xmlns="http://www.w3.org/2000/svg" width="80" height="80"><path fill-rule="evenodd" d="M15.999 19A4 4 0 1 1 16 11 4 4 0 0 1 16 19zm4.78 9.21l-.057 3.596L26.2 61.47h-6.254L18.687 72H16.83V61.47h-1.66V72h-1.857l-1.26-10.53H5.797l5.48-29.664-.058-3.595-4.15 13.317-2.07-.76 3.443-16.124c.784-3.199 1.016-4.084 4.097-4.496l.018.013c.014-.002.026-.012.04-.014.616-.068 3.368-.147 3.368-.147h.083s2.737.079 3.353.147c.014.002.026.012.04.014l.018-.013c3.08.412 3.313 1.297 4.097 4.496L27 40.768l-2.07.76-4.15-13.317zM63.96 17C61.939 17 60 15.216 60 12.5 60 9.706 62.021 8 63.959 8 65.98 8 68 9.707 68 12.5c0 2.794-2.019 4.5-4.041 4.5zM53 42.13l2.315-17.575c1.25-4.978 2.896-6.628 8.64-6.553 5.387.07 7.807 1.283 9.079 6.38L75 42.107l-2.672.085-2.63-14.567-.771 6.931.985 9.321L68.222 72h-3.72l-.005-23.645H63.5v23.64h-3.438l-2.154-28.128.868-9.311-.403-6.755-2.076 14.331L53 42.13zM33 39h12v4H33v-4zm0-7h12v4H33v-4z"/></svg>