<svg viewBox="0 0 80 80" xmlns="http://www.w3.org/2000/svg"><path d="M40 0c22.077 0 40 17.923 40 40S62.077 80 40 80C17.924 80 0 62.077 0 40S17.924 0 40 0zm-5.037 59.023A5.169 5.169 0 0 1 40 55.003a5.167 5.167 0 0 1 5.165 5.165A5.167 5.167 0 0 1 40 65.332a5.167 5.167 0 0 1-5.052-6.24l.006-.027.01-.042zM22.326 46.99c.318.843.697 1.664 1.138 2.452 2.118 3.788 5.607 6.715 9.645 8.321a7.583 7.583 0 0 0-.482 2.308c-5.714-2.182-10.463-6.908-12.572-12.7a6.918 6.918 0 0 0 2.27-.381zm35.388-.092c.717.26 1.469.418 2.224.461a20.316 20.316 0 0 1-1.495 3.296c-2.424 4.271-6.425 7.56-11.04 9.317a6.77 6.77 0 0 0-.378-2.188c4.815-1.98 8.808-5.99 10.689-10.886zm-16.586-7.872v-11.88a7.445 7.445 0 0 1-2.256-.057v11.937H27.186a7.159 7.159 0 0 1-.09 2.256h11.776V52.84a6.924 6.924 0 0 1 1.176-.093c.363.004.724.036 1.08.096V41.28h11.738a7.036 7.036 0 0 1 .017-2.256H41.128zm-21.296-4.19A5.167 5.167 0 0 1 24.997 40a5.167 5.167 0 0 1-5.165 5.164A5.167 5.167 0 0 1 14.668 40a5.167 5.167 0 0 1 5.164-5.165zm40.336 0A5.167 5.167 0 0 1 65.333 40a5.168 5.168 0 0 1-5.165 5.164A5.167 5.167 0 0 1 55.003 40a5.167 5.167 0 0 1 5.165-5.165zM47.366 20.428c5.08 1.946 9.448 5.8 11.787 10.727.223.47.428.95.613 1.436a6.938 6.938 0 0 0-2.344.555c-1.76-4.31-5.034-8.035-9.427-10.088a18.38 18.38 0 0 0-1.167-.497 7.729 7.729 0 0 0 .538-2.133zm-14.74-.063a6.61 6.61 0 0 0 .508 2.28c-4.422 1.77-8.2 5.164-10.248 9.478-.152.32-.295.644-.427.973a7.237 7.237 0 0 0-2.129-.497c1.427-3.7 3.849-7.029 7.099-9.43a21.066 21.066 0 0 1 5.197-2.804zm12.313.98A5.17 5.17 0 0 1 40 24.997a5.167 5.167 0 0 1-5.164-5.165A5.167 5.167 0 0 1 40 14.667a5.167 5.167 0 0 1 4.94 6.676v.002z" fill="currentColor" fill-rule="evenodd"/></svg>