<svg viewBox="0 0 80 80" xmlns="http://www.w3.org/2000/svg"><path d="M40 0c22.077 0 40 17.924 40 40 0 22.077-17.923 40-40 40S0 62.077 0 40C0 17.924 17.923 0 40 0zm.055 47.48c-4.165 0-7.507 3.386-7.507 7.48v2.348C34.3 58.399 37.096 59 40.055 59c2.959 0 5.753-.655 7.507-1.692V54.96c0-4.094-3.343-7.48-7.507-7.48zm16.438-6.005c-4.164 0-7.507 3.385-7.507 7.48v2.347c1.754 1.092 4.548 1.693 7.507 1.693 2.96 0 5.754-.655 7.507-1.693v-2.347c0-4.15-3.397-7.48-7.507-7.48zm-32.986 0c-4.165 0-7.507 3.385-7.507 7.48v2.347c1.753 1.092 4.548 1.693 7.507 1.693 2.959 0 5.753-.655 7.507-1.693v-2.347c.054-4.15-3.343-7.48-7.507-7.48zm13.589 5.132a5.73 5.73 0 0 1-2.85-4.968c0-2.893 2.192-5.35 5.042-5.732v-.219c0-4.149-3.398-7.479-7.507-7.479a7.336 7.336 0 0 0-5.425 2.348 5.766 5.766 0 0 1 3.014 5.077c0 2.129-1.15 3.93-2.85 4.968 3.398 1.201 5.918 4.477 5.918 8.353v1.42c0-.055.055-.055.055-.11 1.041-1.638 2.685-2.948 4.603-3.658zm16.438-6.005a5.73 5.73 0 0 1-2.85-4.968 5.766 5.766 0 0 1 3.015-5.077c-1.37-1.42-3.288-2.348-5.425-2.348-4.164 0-7.507 3.385-7.507 7.48v.163c2.85.328 5.096 2.784 5.096 5.733 0 2.129-1.15 3.93-2.85 4.968a8.617 8.617 0 0 1 4.549 3.657V48.9c0-3.821 2.52-7.097 5.972-8.298zm-13.48-3.385c-2.449 0-4.438 1.982-4.438 4.422 0 2.44 1.99 4.422 4.439 4.422 2.45 0 4.438-1.981 4.438-4.422 0-2.44-1.989-4.422-4.438-4.422zm16.44-6.005c-2.45 0-4.44 1.981-4.44 4.422 0 2.44 1.99 4.422 4.44 4.422 2.449 0 4.438-1.982 4.438-4.422 0-2.44-1.99-4.422-4.439-4.422zm-32.987 0c-2.45 0-4.439 1.981-4.439 4.422 0 2.44 1.99 4.422 4.439 4.422 2.45 0 4.438-1.982 4.438-4.422 0-2.44-1.989-4.422-4.438-4.422zM31.726 18c-2.45 0-4.438 1.981-4.438 4.422 0 2.44 1.988 4.422 4.438 4.422 2.45 0 4.438-1.981 4.438-4.422 0-2.44-1.988-4.422-4.438-4.422zm16.548 0c-2.45 0-4.438 1.981-4.438 4.422 0 2.44 1.988 4.422 4.438 4.422 2.45 0 4.438-1.981 4.438-4.422 0-2.44-1.988-4.422-4.438-4.422z" fill="currentColor" fill-rule="evenodd"/></svg>