<svg xmlns="http://www.w3.org/2000/svg" width="80" height="80"><path fill="#000" d="M33.26 25.967c-.029.1-.155.446-.201.545A2.21 2.21 0 0 1 30.18 27.6a2.1 2.1 0 0 1-1.065-2.82c.057-.118.244-.398.316-.503 1.493-.287 3.18.03 3.83 1.69zm-8.247 7.993c-.573-3.348 1.606-5.723 2.129-6.34.339-.398.575-.335.97-2.136.432-1.956 2.479-3.15 4.898-2.35 2.091.691 2.672 2.607 2.144 4.105-.529 1.488-1.007 1.564-1.365 2.307-.385.807-.347 1.123-.347 1.123l-8.43 3.29zm1.389-17.549C24.157 16.411 22 14.544 22 11.7c0-2.923 2.248-4.71 4.402-4.71 2.248 0 4.493 1.787 4.493 4.71 0 2.925-2.245 4.711-4.493 4.711zm-6.923 14.007l1.202-4.156.087 4.769-1.289-.613zm13.723 3.999l4.437-1.702c1.088-.398 1.172-.96.859-1.987l-2.007-7.265c-.905-3.563-1.792-4.702-5.468-5.066-.822-.08-2.976-.16-4.315-.16-1.341 0-3.52.082-4.31.16-3.675.364-4.564 1.503-5.469 5.066l-2.005 7.265c-.313 1.027-.23 1.59.86 1.987l4.436 1.702L14 63.172h7.724l1.558 11.41h2.295v-11.41h2.268v11.41h2.293l1.558-11.41h7.726l-6.22-28.755zm6.22 7.702l2.848-19.044c1.539-5.394 3.562-7.182 10.627-7.102 6.629.078 9.604 1.391 11.169 6.913l2.42 19.208-3.288.093-3.234-15.785-.95 7.51 1.213 10.1-2.078 30.476H53.57l-.006-25.624h-1.226v25.618h-4.228l-2.65-30.48 1.068-10.09-.495-7.32-2.556 15.53-4.055-.003zm13.402-27.698c-2.244 0-4.401-1.867-4.401-4.712C48.423 6.787 50.67 5 52.824 5c2.25 0 4.494 1.787 4.494 4.71 0 2.925-2.245 4.71-4.494 4.71z" fill-rule="evenodd"/></svg>