<svg viewBox="0 0 80 80" xmlns="http://www.w3.org/2000/svg"><path d="M40 0c22.077 0 40 17.923 40 40 0 22.076-17.923 40-40 40C17.924 80 0 62.076 0 40 0 17.923 17.924 0 40 0zM25.316 28.336h-4.773c-1.992 0-2.787 1.63-3.046 2.548l-2.423 8.055c-.503 1.732 1.696 2.395 2.216.779l2.182-7.415h.586l-3.751 13.143H19.8v10.232c0 1.762 2.614 1.762 2.614 0l-.002-10.299h1.061v10.314c0 1.738 2.603 1.747 2.603 0V45.446h3.483l-3.78-13.143h.634l2.181 7.39c.52 1.686 2.7.969 2.217-.762l-2.424-8.047c-.299-.905-1.1-2.548-3.072-2.548zm36.386-.034l-6.335-.002c-2 0-3.254 1.647-3.254 3.703v8.761c0 1.703 2.228 1.703 2.228 0v-8.527h.709l-.003 23.139c0 .882.71 1.6 1.584 1.6.877 0 1.586-.717 1.586-1.6l.001-13.422h.705l-.004 13.422c0 .882.709 1.6 1.584 1.6.875 0 1.584-.717 1.584-1.6l.007-23.14h.695v8.527c0 1.715 2.216 1.715 2.211 0v-8.708c0-1.895-1.103-3.753-3.298-3.753zM49.096 42.294h-15.73v3.365h15.73v-3.365zm0-6.73h-15.73v3.364h15.73v-3.364zm-26.153-13.54c-1.56 0-2.827 1.28-2.827 2.856 0 1.576 1.267 2.855 2.827 2.855s2.828-1.28 2.828-2.855c0-1.576-1.267-2.855-2.828-2.855zM58.388 22c-1.56 0-2.826 1.279-2.826 2.854 0 1.575 1.266 2.853 2.826 2.853s2.826-1.278 2.826-2.853c0-1.575-1.267-2.854-2.826-2.854z" fill="currentColor" fill-rule="evenodd"/></svg>