<svg viewBox="0 0 80 80" xmlns="http://www.w3.org/2000/svg"><path d="M40 0c22.077 0 40 17.923 40 40 0 22.076-17.923 40-40 40S0 62.076 0 40C0 17.923 17.923 0 40 0zm9.114 55.93l-5.083-23.85.005-.076 1.38-6.455 11.746 5.015.798-1.825-13.212-6.819c-1.298-.584-2.532-.886-4.906-.932l-.013-.003-.036.002-.037-.002-.013.003c-2.374.046-3.66.348-4.957.932l-13.211 6.82.797 1.824 11.746-5.015 1.385 6.455-5.032 23.926h5.714l1.152 11.973h1.697V55.93h1.517v11.973h1.697L43.4 55.93h5.714zm-9.023-36.744c1.939 0 3.508-1.636 3.508-3.654s-1.57-3.654-3.508-3.654c-1.936 0-3.505 1.636-3.505 3.654s1.57 3.654 3.505 3.654z" fill="currentColor" fill-rule="evenodd"/></svg>