<svg viewBox="0 0 80 80" xmlns="http://www.w3.org/2000/svg"><path d="M68.19 22.613a2.07 2.07 0 0 1 2.06 2.08c0 11.505 0 23.01-.002 34.516 0 .319-.022.639-.052.956-.075.79-.45 1.143-1.236 1.144-2.579.004-5.157.002-7.736.002H42.791c-.814 0-1.31-.371-1.415-1.053-.12-.78.288-1.406 1.073-1.636 4.133-1.21 8.35-1.901 12.657-1.798 2.588.062 5.17.339 7.754.545 1.061.084 2.116.236 3.23.363V24.698c0-1.16.926-2.087 2.073-2.085h.027zM14.422 57.731c1.15-.134 2.241-.264 3.333-.387 3.795-.43 7.592-.706 11.415-.392 3.01.247 5.949.832 8.847 1.656.91.26 1.357 1.07 1.044 1.891-.2.523-.59.809-1.147.81-8.788.002-17.577.002-26.366 0-.784 0-1.16-.354-1.232-1.147a12.274 12.274 0 0 1-.052-1.107c-.003-11.42.005-22.84-.014-34.26-.002-1.032.398-1.66 1.483-2.063.817-.304 1.883.05 2.387.83.194.3.29.719.29 1.084.015 10.814.012 21.629.012 32.444v.64zm47.207-4.783c-6.887-1.571-13.638-1.443-20.26 1.447v-.581c-.003-10.225-.003-20.451-.017-30.676 0-.417.119-.668.47-.9 2.88-1.902 6.051-3.02 9.428-3.618 2.588-.458 5.163-.423 7.709.222.8.203 1.557.583 2.328.896.267.109.375.313.375.632-.008 10.712-.006 21.426-.006 32.139 0 .132-.016.264-.027.44zm-42.774.009v-.635c0-10.595.005-21.19-.01-31.786 0-.457.156-.7.535-.9 1.386-.736 2.888-1.056 4.421-1.199 5.12-.479 9.823.845 14.247 3.377.806.461 1.135.977 1.13 1.964-.048 9.99-.032 19.98-.034 29.97v.645c-6.611-2.883-13.363-3.021-20.29-1.436z" fill="currentColor" fill-rule="evenodd"/></svg>