<?xml version="1.0" encoding="utf-8"?>
<!-- Generator: Adobe Illustrator 23.0.4, SVG Export Plug-In . SVG Version: 6.00 Build 0)  -->
<svg version="1.1" id="Layer_1" xmlns="http://www.w3.org/2000/svg" xmlns:xlink="http://www.w3.org/1999/xlink" x="0px" y="0px"
	 viewBox="0 0 258 196" style="enable-background:new 0 0 258 196;" xml:space="preserve">
<style type="text/css">
	.st0{fill-rule:evenodd;clip-rule:evenodd;fill:#FFFFFF;}
</style>
<g>
	<path class="st0" d="M86.9,134.8h160.7l-6.7-13.2H113.1l24.9-41.2c5.5-8.7,6.6-14.7,6.6-22.4c0-18.1-14.4-31.1-32-31.1
		C96.2,27,85,36.5,81.1,51.2h14.7c3.1-7.2,8.8-11.5,17-11.5c10.7,0,17.7,8.2,17.7,19.2c0,6.9-2.8,12-7.3,19.4L86.9,134.8z"/>
	<path class="st0" d="M10,34.9l71.1,0c-2.9,3.8-5.1,8.3-6.6,13.4c-0.3,0.9-0.5,1.8-0.8,2.7h-46l0,42.5h50.8l-10.1,15.7H27.8l0,26
		c0,9.8,7.4,17.2,16.9,17.2h51.4l-9,16.1l-42.4,0c-22.5,0-34.7-12.8-34.7-33.2V34.9z M186.2,27.8l38.2,87.3h-19L186,68.7l-41.4,87.4
		c-5.7,11.4-15.6,12.3-19.4,12.3l-6.2,0L186.2,27.8z M241.5,168.5c-4.3-0.1-14.1-1.1-18.9-12.8l-8.7-20.9l19.1,0l14.7,33.6
		L241.5,168.5z"/>
</g>
</svg>
