<svg xmlns="http://www.w3.org/2000/svg" viewBox="0 0 1147 219" width="1147">
  <g fill="none" fill-rule="evenodd">
    <path fill="#FFF" d="M76.8745926,152.836312 L237.581776,152.836312 L230.889458,139.637466 L103.148612,139.637466 L128.073592,98.4716827 C133.587112,89.7823558 134.634359,83.8086058 134.634359,76.0590865 C134.634359,57.9314423 120.254066,45 102.657232,45 C86.2314554,45 75.0277245,54.4759615 71.0695974,69.2143269 L85.7503927,69.2143269 C88.8431229,62.0385577 94.581053,57.6848077 102.75525,57.6848077 C113.483077,57.6848077 120.413991,65.9198077 120.413991,76.8612981 C120.413991,83.7709615 117.581783,88.8464423 113.067789,96.2636538 L76.8745926,152.836312 Z"/>
    <path fill="#FFF" d="M0 52.8825721L71.0966814 52.8877644C68.2464171 56.7222837 66.0268222 61.2201202 64.5372045 66.3163702 64.2534678 67.1977644 63.9929459 68.1077163 63.7698257 69.0332452L17.7812638 69.0332452 17.7748152 111.524495 68.5881909 111.524495 58.4394447 127.205264 17.7812638 127.205264 17.7748152 153.173293C17.7748152 162.937428 25.2009787 170.392284 34.6868129 170.392284L86.0508957 170.392284 77.0822362 186.50012 34.7216351 186.462476C12.2277625 186.462476 0 173.698486 0 153.242091L0 52.8825721zM176.189535 45.8184375L214.430795 133.124365 195.402379 133.124365 176.008975 86.7169471 134.60792 174.156577C128.909971 185.601721 119.039802 186.414317 115.217095 186.477923L109.056139 186.489606 176.189535 45.8184375zM231.462736 186.452221C227.191208 186.382125 217.390684 185.360538 212.512992 173.676548L203.775191 152.809962 222.829401 152.835923 237.559206 186.462606 231.462736 186.452221zM667.644174 81.9930033C667.644174 86.0080749 666.986446 89.688278 665.67099 93.0336129 664.358823 96.3789477 662.385639 99.2554668 659.758016 101.66317 657.127104 104.074222 653.845042 105.946136 649.901963 107.28561 645.962173 108.621735 641.341634 109.291471 636.046924 109.291471L625.996841 109.291471 625.996841 127.113165C627.401091 127.367665 628.509362 127.565237 629.318368 127.715928 630.127373 127.86327 630.686442 127.963731 630.995574 128.024007 631.298129 128.080934 631.534911 128.124467 631.699343 128.154605 633.580444 128.563145 634.520995 129.761974 634.520995 131.741046L634.520995 138.485294 625.996841 138.485294 610.846079 138.485294 602.315339 138.485294 602.315348 131.741046C602.312059 129.761974 603.25261 128.563145 605.133712 128.154605 605.298144 128.124467 605.531637 128.080934 605.837481 128.024007 606.146613 127.963731 606.705681 127.86327 607.521264 127.715928 608.330269 127.565237 609.438541 127.367665 610.846079 127.113165L610.846079 66.9239276C609.438541 66.6694276 608.330269 66.4685066 607.517975 66.3245132 606.705681 66.1738225 606.146613 66.073362 605.837481 66.0130857 605.534926 65.956158 605.298144 65.9126251 605.133712 65.882487 603.25261 65.4739476 602.312059 64.2784676 602.315348 62.296047L602.315339 55.5551471 636.046924 55.5551471C641.489623 55.5551471 646.202243 56.2047917 650.184786 57.5007322 654.16404 58.8033701 657.449391 60.6217052 660.040839 62.9490402 662.628998 65.2864213 664.546275 68.0758747 665.782804 71.3240977 667.025909 74.5756694 667.644174 78.1319713 667.644174 81.9930033M652.493411 81.9930033C652.493411 79.7761749 652.15797 77.7703134 651.48051 75.9687217 650.799762 74.1738274 649.790149 72.643479 648.438518 71.3810253 647.083599 70.1219203 645.380083 69.1574995 643.311529 68.4877628 641.242975 67.8180261 638.822536 67.4831577 636.046924 67.4831577L625.996841 67.4831577 625.996841 97.2462567 636.046924 97.2462567C638.829113 97.2462567 641.249552 96.894645 643.311529 96.1880727 645.373506 95.4781518 647.083599 94.4668494 648.438518 93.1474681 649.790149 91.8280868 650.799762 90.2240674 651.48051 88.3287125 652.15797 86.4367064 652.493411 84.3236871 652.493411 81.9930033M725.006077 130.885115L725.006077 137.574735 717.929935 137.574735 716.380366 137.574735 711.608625 137.574735C710.278523 137.574735 709.234393 137.375342 708.476235 136.976557 707.714751 136.581095 707.146133 135.773556 706.770379 134.560584L705.513432 130.406573C704.033694 131.732534 702.580557 132.902303 701.157348 133.905912 699.737464 134.906198 698.267702 135.753616 696.74806 136.438197 695.225093 137.122778 693.612344 137.634553 691.903163 137.97352 690.197308 138.319134 688.298587 138.485294 686.210327 138.485294 683.742987 138.485294 681.465188 138.152973 679.373602 137.488331 677.285342 136.820366 675.49303 135.820081 673.99334 134.490797 672.49365 133.15819 671.32582 131.499909 670.491181 129.519276 669.653217 127.538644 669.23756 125.238983 669.23756 122.610325 669.23756 120.400391 669.81948 118.223689 670.973343 116.073573 672.133857 113.923457 674.059845 111.982703 676.756627 110.247988 679.453408 108.519919 683.038033 107.08097 687.520477 105.937786 691.999596 104.794602 697.559422 104.226333 704.206607 104.226333L704.206607 100.783489C704.206607 96.8454863 703.378619 93.931032 701.729292 92.0368029 700.07664 90.1458971 697.675806 89.1987825 694.523464 89.1987825 692.24899 89.1987825 690.350269 89.4646392 688.830628 89.9963527 687.310986 90.5280661 685.99086 91.1229205 684.873574 91.7875623 683.762939 92.4455576 682.725459 93.0437353 681.767786 93.5820951 680.816763 94.1138085 679.775958 94.3796652 678.635396 94.376342 677.687698 94.376342 676.869685 94.1304246 676.188008 93.6385896 675.503005 93.1434315 674.954338 92.5386075 674.535356 91.8141479L671.97092 87.3211695C678.691925 81.173233 686.798897 78.0992647 696.289175 78.0992647 699.704212 78.0992647 702.750145 78.660887 705.430301 79.7808084 708.107131 80.8974066 710.374955 82.4526684 712.237098 84.4432705 714.099241 86.4405191 715.512474 88.8232599 716.476798 91.5881697 717.444447 94.359726 717.929935 97.3938157 717.929935 100.693762L717.929935 126.568267C719.226784 126.794245 720.227686 126.977022 720.929315 127.103304 721.634269 127.232909 722.043275 127.302696 722.156334 127.325959 724.05838 127.73139 725.006077 128.917776 725.006077 130.885115zM704.206607 112.816828C700.099917 112.816828 696.674904 113.076039 693.928244 113.591136 691.174933 114.106233 688.963638 114.767552 687.291035 115.568445 685.618431 116.372662 684.434641 117.306484 683.729686 118.376557 683.031383 119.44663 682.678906 120.613077 682.678906 121.875896 682.678906 124.358333 683.410462 126.13625 684.873574 127.206323 686.330036 128.276396 688.238732 128.811433 690.593013 128.811433 692.036174 128.811433 693.366276 128.681828 694.579994 128.419294 695.797037 128.156761 696.94425 127.764622 698.024958 127.239555 699.105666 126.717811 700.149796 126.076432 701.157348 125.308771 702.1649 124.541109 703.182428 123.64052 704.206607 122.593709L704.206607 112.816828zM736.236176 134.181748C733.50112 131.312718 732.133593 127.351991 732.133593 122.299569L732.133593 89.6318951 726.207639 89.6318951C725.445683 89.6318951 724.790201 89.3855978 724.241193 88.8930032 723.688859 88.4004086 723.412691 87.6581885 723.412691 86.669671L723.412691 81.0847136 732.815693 79.5470198 735.777006 63.5842931C735.93339 62.8221029 736.282759 62.2363148 736.835093 61.8136154 737.384101 61.3975727 738.076183 61.1878871 738.914667 61.1912155L746.208149 61.1912155 746.208149 79.6002733 761.593669 79.6002733 761.593669 89.6318951 746.208149 89.6318951 746.208149 121.327693C746.208149 123.154952 746.663992 124.576154 747.575677 125.604612 748.487362 126.629741 749.705161 127.142306 751.222418 127.142306 752.097503 127.142306 752.829513 127.039127 753.418448 126.829442 754.004056 126.619756 754.516463 126.400086 754.955669 126.173758 755.391548 125.944103 755.784171 125.72776 756.123558 125.518075 756.466272 125.308389 756.808985 125.201883 757.151699 125.201883 757.567614 125.201883 757.910328 125.308389 758.176513 125.518075 758.442699 125.72776 758.725521 126.040625 759.031634 126.459996L763.247346 133.299738C761.197718 135.010505 758.841977 136.301902 756.180122 137.173927 753.521595 138.049281 750.766575 138.485294 747.918391 138.485294 742.867522 138.485294 738.971232 137.050779 736.236176 134.181748M834.949726 131.734511L834.949726 138.485294 826.377503 138.485294 812.404283 138.485294 812.404283 100.982064C812.404283 97.3836583 811.581746 94.5968225 809.943278 92.6249099 808.301508 90.6529972 805.840503 89.6670408 802.560265 89.6670408 800.148811 89.6670408 797.886008 90.2203837 795.771857 91.3337765 793.661009 92.4404622 791.659172 93.9562863 789.776255 95.8711879L789.776255 127.099846C791.186791 127.354719 792.29672 127.552581 793.112651 127.703493 793.928581 127.851051 794.490152 127.951659 794.797365 128.012023 795.107881 128.069034 795.34242 128.109277 795.507588 128.142813 797.397111 128.551952 798.338569 129.749184 798.338569 131.734511L798.338569 138.485294 789.776255 138.485294 775.799732 138.485294 767.230812 138.485294 767.230812 131.734511C767.230812 129.749184 768.17227 128.551952 770.061793 128.142813 770.226961 128.109277 770.464803 128.069034 770.772016 128.012023 771.079228 127.951659 771.6408 127.851051 772.460034 127.703493 773.272661 127.552581 774.389197 127.354719 775.799732 127.099846L775.799732 64.5251541C774.389197 64.270281 773.272661 64.0690655 772.460034 63.9215074 771.6408 63.7705957 771.079228 63.6666343 770.772016 63.6129768 770.464803 63.5559657 770.226961 63.512369 770.061793 63.4821867 768.17227 63.0730483 767.230812 61.8724621 767.230812 59.8904886L767.230812 53.1397059 789.776255 53.1397059 789.776255 85.9344918C792.035755 83.7513028 794.529793 81.9906665 797.245156 80.6492293 799.960519 79.3077921 803.148263 78.6370735 806.805085 78.6370735 809.973009 78.6370735 812.780866 79.1837091 815.235264 80.2736268 817.683055 81.3635446 819.731139 82.8961366 821.37291 84.8680492 823.01468 86.8433155 824.256744 89.1975378 825.105708 91.9340697 825.957976 94.6706016 826.377503 97.6888353 826.377503 100.982064L826.377503 127.099846C827.791341 127.351365 828.904574 127.552581 829.720505 127.703493 830.536435 127.851051 831.098006 127.951659 831.408522 128.012023 831.715735 128.069034 831.953577 128.109277 832.118745 128.13946 834.008268 128.551952 834.949726 129.749184 834.949726 131.734511M908.245492 131.752765L908.245492 138.485294 898.996452 138.485294 884.948538 138.485294 876.330492 138.485294 876.330492 131.752765C876.330492 129.772807 877.280304 128.578811 879.179927 128.170779 879.342657 128.140678 879.58177 128.0972 879.893946 128.040343 880.202801 127.980141 880.767374 127.879805 881.587666 127.732646 882.404637 127.582143 883.527142 127.384816 884.948538 127.130632L884.948538 90.3141009 863.278884 90.3141009 863.278884 127.130632C864.693639 127.384816 865.865959 127.582143 866.792523 127.732646 867.719088 127.879805 868.386613 127.983486 868.795098 128.040343 869.206905 128.0972 869.499154 128.140678 869.668526 128.170779 871.56815 128.578811 872.517961 129.772807 872.51464 131.752765L872.51464 138.485294 863.278884 138.485294 849.234292 138.485294 840.619566 138.485294 840.619566 131.752765C840.619566 129.772807 841.569378 128.578811 843.46568 128.170779 843.62841 128.140678 843.867524 128.0972 844.176379 128.040343 844.491875 127.980141 845.053128 127.879805 845.87342 127.732646 846.693712 127.582143 847.809574 127.384816 849.230971 127.130632L849.230971 90.3743024 844.166416 89.5716164C843.067158 89.377634 842.183767 88.9963581 841.519563 88.4244443 840.85868 87.8525306 840.526578 87.0498446 840.526578 86.0197309L840.526578 80.2337027 849.230971 80.2337027 849.230971 78.3407015C849.230971 74.7486817 849.81547 71.4208794 850.991111 68.3472609 852.166752 65.276987 853.946819 62.6114006 856.337953 60.3571908 858.729087 58.1063255 861.744573 56.3404163 865.38109 55.0594632 869.024248 53.7785102 873.32829 53.1397059 878.293215 53.1397059 878.910924 53.1430504 879.591733 53.1631176 880.348926 53.1932183 880.681028 53.2132854 880.890252 53.223319 880.969957 53.223319 881.039698 53.2333526 881.149292 53.2400416 881.285453 53.2500752 882.278438 53.3236548 882.912753 53.3738226 883.181756 53.3972343 884.5633 53.5377044 885.808682 53.7617875 886.924545 54.0627948 891.026004 54.9825391 894.526359 56.4909199 897.432252 58.5845925 897.893873 58.919045 898.282433 59.2735647 898.591287 59.6481515 899.311949 60.4107032 899.889806 61.2836242 900.328181 62.2669145 900.819692 63.3739523 901.065447 64.5579141 901.065447 65.8154555 901.065447 67.0395517 900.819692 68.1833792 900.328181 69.2536272 899.833349 70.3238752 899.179108 71.2569977 898.365458 72.0596836 897.548487 72.8623696 896.588713 73.5011739 895.492776 73.979441 894.393518 74.4577081 893.217877 74.6951693 891.965853 74.6951693 890.753681 74.6951693 889.601287 74.4577081 888.528598 73.9760965 887.445945 73.5045184 886.509418 72.8623696 885.709052 72.0596836 884.912007 71.2569977 884.277692 70.3238752 883.802786 69.2536272 883.331202 68.1867237 883.092088 67.0428962 883.092088 65.8154555 883.092088 65.410768 883.128619 64.9659462 883.198361 64.474301 879.784352 63.5110778 876.307245 63.5110778 872.767038 64.474301 870.452287 65.1231389 868.562627 66.0529168 867.114662 67.2602903 865.580351 68.5378989 864.477772 70.1432708 863.816889 72.0730617 863.152686 73.9961636 862.823905 76.2403399 862.823905 78.802246L862.823905 80.2337027 898.993131 80.2337027 898.993131 127.130632C900.414527 127.381471 901.586847 127.582143 902.516733 127.732646 903.439976 127.879805 904.110822 127.983486 904.522629 128.040343 904.937756 128.0972 905.226685 128.140678 905.396057 128.170779 907.292359 128.578811 908.242171 129.772807 908.245492 131.752765M979.947871 131.764667L979.947871 138.485294 971.375649 138.485294 957.402431 138.485294 957.402431 101.149588C957.402431 97.5672568 956.583197 94.7928696 954.941427 92.8297654 953.30296 90.8666611 950.838652 89.885109 947.558415 89.885109 945.146961 89.885109 942.884158 90.4359801 940.770007 91.5443995 938.659159 92.6461417 936.657322 94.1551946 934.774407 96.0615425L934.774407 127.150704C936.181638 127.404439 937.294871 127.604755 938.107498 127.751654 938.920125 127.898553 939.485 127.998712 939.792212 128.058807 940.102728 128.115563 940.34057 128.158965 940.502435 128.189013 942.391958 128.596323 943.333416 129.788208 943.333416 131.764667L943.333416 138.485294 934.774407 138.485294 920.797885 138.485294 912.228957 138.485294 912.228966 131.764667C912.225663 129.788208 913.170424 128.596323 915.059947 128.189013 915.225115 128.155626 915.462957 128.115563 915.773473 128.058807 916.077382 127.998712 916.638953 127.898553 917.454884 127.751654 918.270814 127.601417 919.38735 127.404439 920.797885 127.150704L920.797885 91.1571204C919.38735 90.9067244 918.270814 90.7064077 917.454884 90.5595087 916.638953 90.4092711 916.077382 90.3057742 915.773473 90.2490177 915.462957 90.1922613 915.225115 90.1488594 915.059947 90.1221505 913.170424 89.7115011 912.225663 88.5196164 912.228966 86.5431576L912.228966 79.8225303 929.340377 79.8225303C931.150619 79.8225303 932.339829 80.6805537 932.904704 82.393262L933.869286 87.0272565C935.035372 85.8053242 936.270829 84.7002434 937.572353 83.7086754 938.873878 82.7171075 940.251379 81.8624226 941.704858 81.1346051 943.158337 80.4101261 944.714221 79.859255 946.372508 79.4786532 948.034099 79.0947127 949.844341 78.9044118 951.803234 78.9044118 954.971157 78.9044118 957.779014 79.4486056 960.233412 80.5369934 962.684506 81.6187039 964.725983 83.1444499 966.371057 85.1108928 968.009524 87.0739971 969.254891 89.4177032 970.103855 92.1453498 970.952819 94.8696577 971.375649 97.8710705 971.375649 101.149588L971.375649 127.150704C972.789488 127.404439 973.90272 127.601417 974.718651 127.751654 975.534581 127.898553 976.096152 127.998712 976.403365 128.058807 976.713881 128.115563 976.948419 128.155626 977.116891 128.189013 979.00311 128.596323 979.947871 129.788208 979.947871 131.764667M1042.88332 138.197889L1034.98539 138.197889 1026.43948 138.201241C1025.53365 138.201241 1024.76006 137.990103 1024.1187 137.567829 1023.47734 137.148905 1023.06079 136.498736 1022.87235 135.617322L1021.73841 130.164616C1019.39779 132.879239 1016.71335 135.0811 1013.67187 136.763496 1010.63039 138.445892 1007.07648 139.290441 1002.99693 139.290441 999.826515 139.290441 996.930495 138.620164 994.30887 137.282961 991.687245 135.942406 989.422663 133.998602 987.511819 131.458251 985.607587 128.911198 984.136435 125.770949 983.095058 122.044207 982.060293 118.310763 981.541258 114.031043 981.541258 109.215101 981.541258 104.814731 982.123106 100.739445 983.296722 96.9892438 984.463725 93.2390425 986.133234 89.9881979 988.305249 87.2333583 990.477264 84.4751674 993.098889 82.3235775 996.176737 80.775237 999.254584 79.2235452 1002.69939 78.4493749 1006.51116 78.4493749 1009.79398 78.4493749 1012.57429 78.9554343 1014.85871 79.9709043 1017.14643 80.9863743 1019.19282 82.3906052 1021.00449 84.1902996L1021.00449 64.5176622C1019.58954 64.2629569 1018.47212 64.0618737 1017.65555 63.9144127 1016.84559 63.7669517 1016.28358 63.6630588 1015.97282 63.6060852 1015.66536 63.5491116 1015.42733 63.5055436 1015.26204 63.4753811 1013.37433 63.066512 1012.42883 61.8700671 1012.42883 59.8860464L1012.42883 53.1397059 1034.98869 53.1397059 1034.98869 126.940583C1036.19537 127.158423 1037.16071 127.332695 1037.8781 127.463399 1038.59549 127.594103 1039.09469 127.684591 1039.37239 127.738213 1039.65009 127.788484 1039.8749 127.832052 1040.05342 127.862214 1041.94112 128.271083 1042.88663 129.470879 1042.88663 131.451549L1042.88332 138.197889zM1021.00449 94.579597C1019.42093 92.5888736 1017.69192 91.2013997 1015.82405 90.4171753 1013.95618 89.6329509 1011.94616 89.2374873 1009.79398 89.2374873 1007.68147 89.2374873 1005.76402 89.6430051 1004.04492 90.4439864 1002.32913 91.2483191 1000.87781 92.4749265 999.687665 94.1204571 998.500826 95.7626364 997.585075 97.8404959 996.940413 100.347333 996.299057 102.85417 995.978379 105.810092 995.978379 109.215101 995.978379 112.653623 996.252774 115.572681 996.798257 117.968922 997.347046 120.361812 998.130558 122.305616 999.1521 123.79028 1000.16703 125.284998 1001.40346 126.374199 1002.85477 127.064584 1004.3094 127.75497 1005.96568 128.100162 1007.81371 128.100162 1010.71634 128.100162 1013.19912 127.476805 1015.25542 126.23344 1017.31504 124.990076 1019.22919 123.240652 1021.00449 120.978467L1021.00449 94.579597zM1081.14095 80.6724261C1084.23429 81.8566621 1086.90521 83.5779742 1089.14373 85.8430341 1091.38557 88.1114298 1093.13181 90.8902146 1094.38578 94.1860602 1095.63974 97.47857 1096.26507 101.241438 1096.26507 105.467993 1096.26507 106.535474 1096.2185 107.419481 1096.12537 108.126687 1096.02558 108.830556 1095.85595 109.384312 1095.60981 109.784617 1095.36035 110.181586 1095.03105 110.468472 1094.61196 110.638601 1094.19618 110.812067 1093.664 110.895464 1093.01539 110.895464L1056.8998 110.895464C1057.3189 116.91672 1058.93209 121.33342 1061.74271 124.152235 1064.55332 126.971051 1068.27531 128.37879 1072.90867 128.37879 1075.1871 128.37879 1077.15287 128.11192 1078.80265 127.57818 1080.45576 127.047776 1081.89932 126.457326 1083.13666 125.80683 1084.36734 125.15967 1085.45167 124.56922 1086.37968 124.038816 1087.31101 123.505075 1088.21572 123.238205 1089.08718 123.238205 1089.65596 123.238205 1090.15156 123.351625 1090.56733 123.578465 1090.98975 123.811976 1091.34565 124.13222 1091.65166 124.552541L1095.75283 129.693126C1094.19618 131.521186 1092.44662 133.055689 1090.51078 134.293299 1088.57828 135.530909 1086.55264 136.521664 1084.44384 137.262228 1082.33505 138.006129 1080.18967 138.529861 1078.0077 138.833426 1075.8224 139.140327 1073.70695 139.290441 1071.6547 139.290441 1067.59345 139.290441 1063.81159 138.616594 1060.3191 137.262228 1056.8233 135.911199 1053.7865 133.913009 1051.20539 131.264323 1048.62428 128.618973 1046.59198 125.339807 1045.10851 121.436832 1043.62836 117.533857 1042.88663 113.010409 1042.88663 107.869824 1042.88663 103.870109 1043.5319 100.110576 1044.82246 96.5845552 1046.11302 93.06187 1047.96569 89.9961998 1050.37717 87.3875447 1052.79197 84.7788896 1055.73231 82.7106464 1059.20816 81.1894869 1062.68401 79.6649915 1066.60557 78.9044118 1070.97284 78.9044118 1074.65491 78.9044118 1078.04761 79.491526 1081.14095 80.6724261M1061.62962 92.5014428C1059.31127 94.8232126 1057.83113 98.1190582 1057.18917 102.382308L1083.61895 102.382308C1083.61895 100.554248 1083.37282 98.8329357 1082.87722 97.2116999 1082.38494 95.5971358 1081.62657 94.1760526 1080.59879 92.9584578 1079.57432 91.7375272 1078.28377 90.7767949 1076.72379 90.0695891 1075.16714 89.3657193 1073.3444 89.0121164 1071.25556 89.0121164 1067.15439 89.0121164 1063.94463 90.1763372 1061.62962 92.5014428M1146.45673 80.096724L1144.62113 90.6433092C1144.50724 91.3291036 1144.25937 91.8118229 1143.87416 92.0981254 1143.4923 92.3844279 1142.97646 92.5275792 1142.32663 92.5275792 1141.75384 92.5275792 1140.96668 92.3910861 1139.97519 92.1247582 1138.977 91.8617594 1137.66059 91.7285955 1136.01592 91.7285955 1133.07159 91.7285955 1130.54597 92.5375665 1128.4424 94.1521794 1126.33883 95.7667924 1124.56017 98.1304526 1123.10978 101.249818L1123.10978 126.381186C1127.99355 127.236764 1128.04379 127.256739 1128.9281 127.413206 1130.83739 127.819356 1131.79538 129.011174 1131.79538 130.978671L1131.79538 137.680147 1123.10978 137.680147 1123.10308 137.680147 1108.93748 137.680147 1100.24853 137.680147 1100.24853 130.978671C1100.24853 129.011174 1101.20318 127.819356 1103.11917 127.413206 1104.00012 127.256739 1104.05037 127.236764 1108.93748 126.377856L1108.93748 90.4868416C1104.05037 89.6312632 1104.00012 89.6079595 1103.11917 89.4548209 1101.20318 89.0486709 1100.24853 87.8568535 1100.24853 85.889356L1100.24853 79.1845509 1117.25797 79.1845509C1118.71171 79.1845509 1119.7233 79.4508788 1120.29944 79.9802056 1120.86888 80.5161905 1121.25409 81.4283636 1121.44501 82.7200539L1122.30587 89.7877308C1124.40944 86.1756585 1126.87142 83.3259499 1129.70521 81.2352758 1132.53565 79.1479308 1135.71111 78.0992647 1139.22487 78.0992647 1142.1357 78.0992647 1144.54074 78.7650845 1146.45673 80.096724M618.537603 160.159289C618.423417 160.183067 618.217881 160.220432 617.914473 160.278179 617.614326 160.332529 617.203256 160.407261 616.684525 160.502373L616.684525 183.292024C617.203256 183.390534 617.614326 183.468662 617.914473 183.523012 618.217881 183.577362 618.423417 183.618124 618.537603 183.641902 618.648526 183.662284 618.736613 183.675871 618.7986 183.686062 619.496766 183.842318 619.842587 184.2975 619.842587 185.044813L619.842587 187.599265 616.684525 187.599265 611.053516 187.599265 607.892191 187.599265 607.892191 185.044813C607.892191 184.2975 608.241274 183.842318 608.936178 183.686062 608.998165 183.675871 609.086252 183.662284 609.197175 183.641902 609.311361 183.614727 609.520159 183.577362 609.820305 183.523012 610.120452 183.468662 610.531522 183.390534 611.053516 183.292024L611.053516 160.502373C610.531522 160.407261 610.120452 160.332529 609.820305 160.278179 609.520159 160.220432 609.311361 160.183067 609.197175 160.159289 609.086252 160.13551 608.998165 160.121923 608.936178 160.108335 608.241274 159.955476 607.892191 159.503691 607.892191 158.752981L607.892191 156.198529 619.842587 156.198529 619.842587 158.752981C619.842587 159.503691 619.496766 159.955476 618.7986 160.108335 618.736613 160.121923 618.648526 160.138907 618.537603 160.159289M670.034253 156.198529L670.034253 158.752981C670.034253 159.500294 669.687295 159.955476 668.986834 160.111732 668.924643 160.118526 668.836267 160.138907 668.724979 160.159289 668.610418 160.183067 668.404207 160.220432 668.099801 160.274782 667.795395 160.332529 667.386247 160.407261 666.86581 160.502373L666.86581 187.599265 663.955949 187.599265C663.507523 187.599265 663.140926 187.524533 662.84634 187.381865 662.555026 187.239196 662.266986 186.974239 661.988766 186.600583L646.169465 165.686008C646.212016 166.154777 646.241475 166.616753 646.264387 167.06514 646.284026 167.520322 646.293846 167.938138 646.293846 168.315191L646.293846 183.295421C648.048273 183.54679 648.954945 183.675871 649.020409 183.686062 649.72087 183.842318 650.067828 184.294103 650.067828 185.044813L650.067828 187.599265 646.293846 187.599265 641.334971 187.599265 638.166529 187.599265 638.166529 185.044813C638.166529 184.2975 638.51676 183.842318 639.213948 183.686062 639.272865 183.675871 639.361241 183.658887 639.475803 183.638506 639.590364 183.614727 639.799848 183.577362 640.100981 183.519615 640.398841 183.465265 640.814535 183.390534 641.334971 183.292024L641.334971 160.50577C640.814535 160.407261 640.398841 160.332529 640.097708 160.274782 639.799848 160.220432 639.590364 160.183067 639.475803 160.159289 639.361241 160.138907 639.272865 160.121923 639.213948 160.111732 638.51676 159.955476 638.166529 159.503691 638.166529 158.752981L638.166529 156.198529 644.287384 156.198529C644.539419 156.198529 644.74563 156.20872 644.912562 156.232498 645.079494 156.252879 645.230061 156.297039 645.364261 156.36158 645.495189 156.42612 645.622843 156.521233 645.750497 156.64352 645.874878 156.765808 646.012352 156.928858 646.169465 157.132671L662.050956 178.12877C661.995312 177.629429 661.956034 177.133485 661.936395 176.644335 661.913482 176.158581 661.906936 175.706797 661.906936 175.285584L661.906936 160.502373C660.162329 160.254401 659.255656 160.121923 659.1771 160.111732 658.479912 159.955476 658.126408 159.500294 658.126408 158.752981L658.126408 156.198529 670.034253 156.198529zM710.665601 156.198529L710.665601 163.630897 710.483145 163.630897 709.968949 163.630897 708.223999 163.630897C707.676629 163.630897 707.348207 163.359147 707.235415 162.819044 707.192289 162.564278 707.122624 161.959634 707.023102 160.998317L700.769813 160.998317 700.769813 183.292024C701.297278 183.390534 701.718588 183.465265 702.023788 183.519615 702.325671 183.577362 702.541301 183.614727 702.654093 183.638506 702.770202 183.658887 702.859771 183.675871 702.919484 183.686062 703.62609 183.842318 703.981051 184.294103 703.981051 185.044813L703.981051 187.599265 700.769813 187.599265 695.067211 187.599265 691.852655 187.599265 691.852655 185.044813C691.852655 184.294103 692.207617 183.842318 692.914222 183.686062 692.977252 183.675871 693.066822 183.658887 693.182931 183.638506 693.295722 183.614727 693.508035 183.577362 693.813236 183.519615 694.121753 183.465265 694.536428 183.390534 695.067211 183.292024L695.067211 160.998317 688.810604 160.998317C688.7144 161.956237 688.644734 162.560881 688.601608 162.819044 688.4855 163.359147 688.157077 163.630897 687.613025 163.630897L685.868075 163.630897 685.353879 163.630897 685.171422 163.630897 685.171422 156.198529 710.665601 156.198529zM748.906871 156.198529L748.906871 159.222077 748.906871 160.845961 748.906871 164.450437 748.726416 164.450437 748.217864 164.450437 746.492067 164.450437C745.950704 164.450437 745.629168 164.182055 745.514334 163.638496 745.458557 163.302169 745.356846 162.367926 745.209202 160.845961L735.4614 160.845961 735.4614 169.553099 745.717755 169.553099 745.717755 174.051052 735.4614 174.051052 735.4614 182.93145 745.209202 182.93145C745.356846 181.406087 745.458557 180.475242 745.514334 180.135517 745.629168 179.595356 745.950704 179.323576 746.492067 179.323576L748.906871 179.323576 748.906871 182.93145 748.906871 184.551936 748.906871 187.599265 729.778737 187.599265 726.599464 187.599265 726.599464 185.047934C726.599464 184.297143 726.950529 183.845309 727.652659 183.689036 727.711717 183.678844 727.800304 183.661858 727.915138 183.641474 728.026691 183.617694 728.233393 183.580324 728.538525 183.525968 728.843656 183.464818 729.253779 183.390078 729.778737 183.298353L729.778737 160.506236C729.253779 160.404319 728.843656 160.329579 728.538525 160.275223 728.233393 160.21747 728.026691 160.180101 727.915138 160.15632 727.800304 160.135936 727.711717 160.11895 727.652659 160.108758 726.950529 159.955882 726.599464 159.500652 726.599464 158.74986L726.599464 156.198529 748.906871 156.198529zM793.521685 185.044813L793.521685 187.599265 792.942149 187.599265 790.352249 187.599265 787.873672 187.599265C787.385814 187.599265 786.969989 187.497358 786.629472 187.293546 786.288954 187.09313 785.997549 186.804395 785.761806 186.427342L779.396741 176.372585C779.157723 175.995531 778.895787 175.727178 778.614204 175.567525 778.326074 175.407871 777.903701 175.329743 777.347085 175.329743L775.235219 175.329743 775.235219 183.295421C775.755819 183.390534 776.165095 183.465265 776.469597 183.519615 776.76755 183.577362 776.980373 183.614727 777.091697 183.638506 777.206294 183.658887 777.291423 183.675871 777.353633 183.686062 778.05104 183.842318 778.398107 184.2975 778.398107 185.044813L778.398107 187.599265 775.235219 187.599265 769.603577 187.599265 766.434119 187.599265 766.434142 185.044813C766.430867 184.2975 766.781208 183.842318 767.481889 183.686062 767.540825 183.675871 767.629228 183.658887 767.743826 183.638506 767.858423 183.614727 768.064698 183.577362 768.3692 183.519615 768.670427 183.465265 769.079704 183.390534 769.603577 183.295421L769.603577 160.50577C769.079704 160.403864 768.670427 160.329132 768.3692 160.274782 768.064698 160.220432 767.858423 160.17967 767.743826 160.159289 767.629228 160.13551 767.540825 160.118526 767.481889 160.111732 766.781208 159.955476 766.430867 159.500294 766.434142 158.752981L766.434119 156.198529 778.538898 156.198529C780.60165 156.198529 782.369724 156.419326 783.846393 156.860921 785.316513 157.302515 786.524697 157.920746 787.464395 158.715616 788.407368 159.513882 789.1015 160.465008 789.53697 161.57239 789.975715 162.679772 790.198361 163.899251 790.198361 165.230827 790.198361 166.290652 790.044473 167.285937 789.74652 168.226873 789.445293 169.171204 789.013097 170.023821 788.449933 170.791515 787.883494 171.555812 787.186087 172.231791 786.357712 172.812657 785.526063 173.386729 784.58309 173.852102 783.518972 174.198583 784.23275 174.623193 784.845027 175.221043 785.362352 176.005722L790.126328 183.292024C790.646928 183.390534 791.079124 183.465265 791.419641 183.519615 791.756885 183.577362 792.002451 183.614727 792.153065 183.638506 792.303678 183.658887 792.411727 183.675871 792.470663 183.686062 793.171344 183.842318 793.521685 184.294103 793.521685 185.044813M783.17518 169.585624C783.682682 169.103267 784.065765 168.525798 784.314605 167.86001 784.566719 167.194222 784.691139 166.463893 784.691139 165.669024 784.691139 164.075888 784.186911 162.853012 783.17518 161.993602 782.163449 161.144383 780.618021 160.716376 778.538898 160.716376L775.235219 160.716376 775.235219 171.137997 778.453768 171.137997C779.514612 171.137997 780.43794 170.998725 781.227024 170.726974 782.016109 170.451827 782.664403 170.071377 783.17518 169.585624M841.323271 156.198529L841.323271 158.752981C841.323271 159.500294 840.976313 159.955476 840.272579 160.111732 840.213661 160.118526 840.125285 160.138907 840.013997 160.159289 839.899436 160.183067 839.693225 160.220432 839.388819 160.274782 839.087686 160.332529 838.671992 160.407261 838.154828 160.502373L838.154828 187.599265 835.244967 187.599265C834.796541 187.599265 834.429944 187.524533 834.135358 187.381865 833.844044 187.239196 833.556004 186.974239 833.277783 186.600583L817.458483 165.686008C817.501034 166.154777 817.530493 166.616753 817.553405 167.06514 817.573044 167.520322 817.582864 167.938138 817.582864 168.315191L817.582864 183.295421C819.337291 183.54679 820.243963 183.675871 820.309426 183.686062 821.009888 183.842318 821.356846 184.294103 821.356846 185.044813L821.356846 187.599265 817.582864 187.599265 812.623989 187.599265 809.455547 187.599265 809.455547 185.044813C809.455547 184.2975 809.805777 183.842318 810.502966 183.686062 810.561883 183.675871 810.650259 183.658887 810.76482 183.638506 810.879382 183.614727 811.085593 183.577362 811.386726 183.519615 811.691132 183.465265 812.10028 183.390534 812.623989 183.292024L812.623989 160.50577C812.10028 160.407261 811.691132 160.332529 811.386726 160.274782 811.085593 160.220432 810.879382 160.183067 810.76482 160.159289 810.650259 160.138907 810.561883 160.121923 810.502966 160.111732 809.805777 159.955476 809.455547 159.503691 809.455547 158.752981L809.455547 156.198529 815.576402 156.198529C815.825164 156.198529 816.034648 156.20872 816.20158 156.232498 816.368512 156.252879 816.519079 156.297039 816.653279 156.36158 816.784207 156.42612 816.911861 156.521233 817.039515 156.64352 817.163896 156.765808 817.30137 156.928858 817.458483 157.132671L833.339974 178.12877C833.28433 177.629429 833.245052 177.133485 833.222139 176.644335 833.2025 176.158581 833.195954 175.706797 833.195954 175.285584L833.195954 160.502373C831.451346 160.254401 830.541401 160.121923 830.466118 160.111732 829.76893 159.955476 829.418699 159.500294 829.418699 158.752981L829.418699 156.198529 841.323271 156.198529zM890.718244 185.381344L890.718244 187.599265 889.224524 187.599265 885.931103 187.599265 885.230306 187.599265 884.851941 187.599265 880.443165 187.599265 880.443165 185.381344C880.443165 184.87866 880.719536 184.508441 881.278859 184.267288 881.380853 184.22653 881.657224 184.104256 882.117842 183.903862L881.956626 183.448729 880.443165 179.17592 868.332194 179.17592 866.752932 183.628744 866.654228 183.903862C867.118136 184.107652 867.397797 184.229927 867.496501 184.267288 868.055823 184.508441 868.332194 184.87866 868.332194 185.381344L868.332194 187.599265 863.94316 187.599265 863.545054 187.599265 862.840966 187.599265 859.547546 187.599265 858.053826 187.599265 858.053826 185.381344C858.053826 184.87866 858.333487 184.508441 858.889519 184.267288 859.109958 184.175583 859.879849 183.842725 861.195901 183.268714L871.49401 156.198529 877.28135 156.198529 887.576169 183.268714C888.902091 183.846121 889.668692 184.178979 889.88255 184.267288 890.441873 184.508441 890.718244 184.87866 890.718244 185.381344zM869.783142 175.052557L878.988928 175.052557 875.531 165.301176C875.363204 164.829061 875.175666 164.278827 874.974968 163.660662 874.77098 163.032308 874.573572 162.346213 874.376164 161.605773 874.178757 162.353006 873.984639 163.039101 873.797101 163.670851 873.606274 164.305999 873.425317 164.863027 873.241069 165.341934L869.783142 175.052557zM928.959513 156.198529L928.959513 163.630897 928.777056 163.630897 928.26286 163.630897 926.51791 163.630897C925.97054 163.630897 925.645435 163.359147 925.529326 162.819044 925.4862 162.564278 925.413218 161.959634 925.317013 160.998317L919.063724 160.998317 919.063724 183.292024C919.594507 183.390534 920.012499 183.465265 920.317699 183.519615 920.622899 183.577362 920.835213 183.614727 920.948004 183.638506 921.064113 183.658887 921.153683 183.675871 921.213396 183.686062 921.920001 183.842318 922.278279 184.294103 922.278279 185.044813L922.278279 187.599265 919.063724 187.599265 913.361122 187.599265 910.146566 187.599265 910.146566 185.044813C910.146566 184.294103 910.501528 183.842318 911.208133 183.686062 911.274481 183.675871 911.360733 183.658887 911.476842 183.638506 911.592951 183.614727 911.801947 183.577362 912.107147 183.519615 912.415665 183.465265 912.833656 183.390534 913.361122 183.292024L913.361122 160.998317 907.107833 160.998317C907.008311 161.956237 906.938646 162.560881 906.89552 162.819044 906.779411 163.359147 906.450989 163.630897 905.906936 163.630897L904.161986 163.630897 903.64779 163.630897 903.465333 163.630897 903.465333 156.198529 928.959513 156.198529zM956.33548 160.159289C956.221294 160.183067 956.015759 160.220432 955.715612 160.278179 955.412203 160.332529 955.001133 160.407261 954.482402 160.502373L954.482402 183.292024C955.001133 183.390534 955.412203 183.468662 955.715612 183.523012 956.015759 183.577362 956.221294 183.618124 956.33548 183.641902 956.446404 183.662284 956.53449 183.675871 956.596477 183.686062 957.291381 183.842318 957.640465 184.2975 957.640465 185.044813L957.640465 187.599265 954.482402 187.599265 948.851393 187.599265 945.690068 187.599265 945.690068 185.044813C945.690068 184.2975 946.035889 183.842318 946.730793 183.686062 946.796042 183.675871 946.880866 183.662284 946.995053 183.641902 947.109239 183.614727 947.318036 183.577362 947.618183 183.523012 947.918329 183.468662 948.329399 183.390534 948.851393 183.292024L948.851393 160.502373C948.329399 160.407261 947.918329 160.332529 947.618183 160.278179 947.318036 160.220432 947.109239 160.183067 946.995053 160.159289 946.880866 160.13551 946.796042 160.121923 946.730793 160.108335 946.035889 159.955476 945.690068 159.503691 945.690068 158.752981L945.690068 156.198529 957.640465 156.198529 957.640465 158.752981C957.640465 159.503691 957.291381 159.955476 956.596477 160.108335 956.53449 160.121923 956.446404 160.138907 956.33548 160.159289M1004.31816 178.154785C1003.5689 180.07226 1002.51795 181.730527 1001.16199 183.136233 999.802718 184.538615 998.174904 185.631942 996.265289 186.419536 994.355674 187.203806 992.24714 187.599265 989.926427 187.599265 987.609029 187.599265 985.493865 187.203806 983.580935 186.419536 981.664689 185.631942 980.023613 184.538615 978.664339 183.136233 977.298433 181.730527 976.244167 180.07226 975.491593 178.154785 974.745649 176.233986 974.37102 174.150352 974.37102 171.897235 974.37102 169.647442 974.745649 167.560485 975.491593 165.639686 976.244167 163.722211 977.298433 162.06062 978.664339 160.661561 980.023613 159.259179 981.664689 158.162529 983.580935 157.374935 985.493865 156.590665 987.609029 156.198529 989.926427 156.198529 992.24714 156.198529 994.355674 156.593988 996.265289 157.388228 998.174904 158.179145 999.802718 159.275795 1001.16199 160.668208 1002.51795 162.063944 1003.5689 163.722211 1004.31816 165.639686 1005.06742 167.560485 1005.44205 169.647442 1005.44205 171.897235 1005.44205 174.150352 1005.06742 176.233986 1004.31816 178.154785M998.924163 167.361094C998.479912 166.021852 997.840058 164.885324 997.007917 163.95151 996.17246 163.017696 995.157977 162.303213 993.964468 161.804735 992.770958 161.309581 991.424945 161.063666 989.926427 161.063666 988.42791 161.063666 987.081896 161.309581 985.881756 161.804735 984.674985 162.303213 983.657187 163.017696 982.818415 163.95151 981.976328 164.885324 981.329843 166.021852 980.878962 167.361094 980.424765 168.700336 980.199325 170.212383 980.199325 171.897235 980.199325 173.585411 980.424765 175.094135 980.878962 176.433377 981.329843 177.772619 981.976328 178.902501 982.818415 179.832991 983.657187 180.760159 984.674985 181.471319 985.881756 181.966473 987.081896 182.46495 988.42791 182.714189 989.926427 182.714189 991.424945 182.714189 992.770958 182.46495 993.964468 181.966473 995.157977 181.471319 996.17246 180.760159 997.007917 179.832991 997.840058 178.902501 998.479912 177.772619 998.924163 176.433377 999.371729 175.094135 999.593854 173.585411 999.593854 171.897235 999.593854 170.212383 999.371729 168.700336 998.924163 167.361094M1053.24364 156.198529L1053.24364 158.752981C1053.24364 159.500294 1052.89668 159.955476 1052.19622 160.111732 1052.13403 160.118526 1052.04565 160.138907 1051.93436 160.159289 1051.8198 160.183067 1051.61359 160.220432 1051.30919 160.274782 1051.00478 160.332529 1050.59236 160.407261 1050.07519 160.502373L1050.07519 187.599265 1047.16533 187.599265C1046.71691 187.599265 1046.35031 187.524533 1046.05572 187.381865 1045.76441 187.239196 1045.47637 186.974239 1045.19815 186.600583L1029.37885 165.686008C1029.4214 166.154777 1029.45086 166.616753 1029.47377 167.06514 1029.49341 167.520322 1029.50323 167.938138 1029.50323 168.315191L1029.50323 183.295421C1031.25766 183.54679 1032.1676 183.675871 1032.22979 183.686062 1032.93025 183.842318 1033.27721 184.294103 1033.27721 185.044813L1033.27721 187.599265 1029.50323 187.599265 1024.54436 187.599265 1021.37591 187.599265 1021.37591 185.044813C1021.37591 184.2975 1021.72614 183.842318 1022.42333 183.686062 1022.48552 183.675871 1022.57063 183.658887 1022.68519 183.638506 1022.79975 183.614727 1023.00596 183.577362 1023.30709 183.519615 1023.6115 183.465265 1024.02065 183.390534 1024.54436 183.292024L1024.54436 160.50577C1024.02065 160.407261 1023.6115 160.332529 1023.30709 160.274782 1023.00596 160.220432 1022.79975 160.183067 1022.68519 160.159289 1022.57063 160.138907 1022.48552 160.121923 1022.42333 160.111732 1021.72614 159.955476 1021.37591 159.503691 1021.37591 158.752981L1021.37591 156.198529 1027.49677 156.198529C1027.74553 156.198529 1027.95501 156.20872 1028.12195 156.232498 1028.28888 156.252879 1028.43945 156.297039 1028.57365 156.36158 1028.70457 156.42612 1028.8355 156.521233 1028.95988 156.64352 1029.08426 156.765808 1029.22174 156.928858 1029.37885 157.132671L1045.26361 178.12877C1045.2047 177.629429 1045.16542 177.133485 1045.14251 176.644335 1045.12287 176.158581 1045.11632 175.706797 1045.11632 175.285584L1045.11632 160.502373C1043.37171 160.254401 1042.46177 160.121923 1042.38648 160.111732 1041.68602 159.955476 1041.33907 159.500294 1041.33907 158.752981L1041.33907 156.198529 1053.24364 156.198529zM1102.63861 185.381344L1102.63861 187.599265 1101.1416 187.599265 1097.85147 187.599265 1097.14738 187.599265 1096.76902 187.599265 1092.36353 187.599265 1092.36353 185.381344C1092.36353 184.87866 1092.6399 184.508441 1093.19593 184.267288 1093.30122 184.22653 1093.57759 184.104256 1094.03821 183.903862L1093.8737 183.448729 1092.36353 179.17592 1080.24927 179.17592 1078.6733 183.628744 1078.57459 183.903862C1079.0385 184.107652 1079.31816 184.229927 1079.41358 184.267288 1079.96961 184.508441 1080.24927 184.87866 1080.24927 185.381344L1080.24927 187.599265 1075.86353 187.599265 1075.46542 187.599265 1074.76133 187.599265 1071.46791 187.599265 1069.97419 187.599265 1069.97419 185.381344C1069.97419 184.87866 1070.25385 184.508441 1070.80989 184.267288 1071.03361 184.175583 1071.79692 183.842725 1073.11298 183.268714L1083.41438 156.198529 1089.19843 156.198529 1099.49324 183.268714C1100.81917 183.846121 1101.58906 184.178979 1101.79963 184.267288 1102.35895 184.508441 1102.63861 184.87866 1102.63861 185.381344zM1081.70351 175.052557L1090.90929 175.052557 1087.45137 165.301176C1087.28028 164.829061 1087.09603 164.278827 1086.89533 163.660662 1086.69135 163.032308 1086.49394 162.346213 1086.29653 161.605773 1086.09583 162.353006 1085.90501 163.039101 1085.71747 163.670851 1085.52664 164.305999 1085.34239 164.863027 1085.15815 165.341934L1081.70351 175.052557zM1141.67657 180.085372L1141.67657 184.477534 1141.67657 185.316563 1141.67657 187.599265 1140.657 187.599265 1140.53038 187.599265 1122.59449 187.599265 1119.36917 187.599265 1119.36917 185.044813C1119.36917 184.294103 1119.72568 183.842318 1120.43539 183.686062 1120.49536 183.675871 1120.582 183.658887 1120.69861 183.638506 1120.81523 183.614727 1121.02848 183.577362 1121.33502 183.519615 1121.64156 183.465265 1122.06138 183.390534 1122.59449 183.292024L1122.59449 160.502373C1122.06138 160.407261 1121.64156 160.332529 1121.33502 160.271385 1121.02848 160.220432 1120.81523 160.17967 1120.69861 160.155892 1120.582 160.13551 1120.49536 160.121923 1120.43539 160.108335 1119.72568 159.952079 1119.36917 159.500294 1119.36917 158.749584L1119.36917 156.198529 1131.54411 156.198529 1131.54411 158.749584C1131.54411 159.500294 1131.19092 159.952079 1130.48122 160.108335 1130.42124 160.121923 1130.33128 160.13551 1130.21466 160.155892 1130.09471 160.17967 1129.8848 160.220432 1129.58159 160.271385 1129.27505 160.332529 1128.85523 160.407261 1128.32545 160.502373L1128.32545 182.779096 1138.238 182.779096C1138.32796 181.67511 1138.38461 181.050085 1138.41459 180.893829 1138.52788 180.353725 1138.85774 180.085372 1139.40418 180.085372L1141.67657 180.085372zM409.463878 75.814711C424.322579 89.4653401 449.463981 100.741656 449.463981 100.741656 452.606656 100.734968 454.778261 98.6883765 454.19961 91.3647906 453.135424 77.8345493 439.281048 60.5020628 460.574751 51.7070715 484.12985 45.9351495 483.611059 66.6150833 484.116548 73.05917 484.628687 79.4999127 484.066664 88.134387 476.853476 89.9468909 471.4228 91.8062123 468.359939 95.9629325 468.842148 100.942302 469.321032 105.898263 470.511591 111.489603 477.927639 108.800944 485.343687 106.112285 487.063013 104.166017 492.370643 100.179847 505.699576 90.6123674 524.123302 59.3985087 531.409652 27.4757001 514.159857 14.5741502 485.383594-1.34712484 451.426074.0908395065 447.628259.25470056 443.930212.592454978 440.341909 1.08403814 419.919508 3.33796366 388.303198 15.4268965 377.870847 25.2685921 375.868846 27.1546662 373.936683 28.9571378 372.071031 30.6927274 381.073382 55.0712393 401.332829 68.3439846 409.463878 75.814711M514.117712 98.6945127C500.372822 130.500092 491.375683 142.47554 491.578352 164.512383 491.704604 177.914121 497.000556 197.458322 502.426083 212.558824 534.394498 197.027744 557.452158 157.064731 562.306227 119.584269 567.323095 80.8221654 551.837252 45.592146 540.261909 35.4264706 534.583877 52.9523372 521.752655 81.0239988 514.117712 98.6945127M442.967787 161.53347C442.994396 150.963991 443.273786 129.922029 437.024106 121.938058 432.723502 116.442598 419.565582 103.183921 417.500094 101.384434 403.384267 86.1021698 389.238505 74.6463253 378.279115 61.5047157 372.44852 54.5107972 367.602441 44.2657603 365.267542 36.2316176 342.354268 57.8789827 333.357257 90.7012314 348.417688 147.428566 364.133353 206.60093 413.658487 215.882672 434.057255 219 434.626012 214.123322 442.931201 175.942749 442.967787 161.53347"/>
  </g>
</svg>
